<?xml version="1.0" encoding="UTF-8"?>
<svg xmlns="http://www.w3.org/2000/svg" xmlns:xlink="http://www.w3.org/1999/xlink" width="288px" height="309.6px" viewBox="0 0 288 309.6" version="1.1" id="Fig:dens">
  <metadata xmlns:gridsvg="http://www.stat.auckland.ac.nz/~paul/R/gridSVG/">
    <gridsvg:generator name="gridSVG" version="1.5-0" time="2016-11-08 12:15:08"/>
    <gridsvg:argument name="name" value="arrayQualityMetrics report for e/dens.svg"/>
    <gridsvg:argument name="exportCoords" value="none"/>
    <gridsvg:argument name="exportMappings" value="none"/>
    <gridsvg:argument name="exportJS" value="none"/>
    <gridsvg:argument name="res" value="72"/>
    <gridsvg:argument name="prefix" value="Fig:dens"/>
    <gridsvg:argument name="addClasses" value="FALSE"/>
    <gridsvg:argument name="indent" value="TRUE"/>
    <gridsvg:argument name="htmlWrapper" value="FALSE"/>
    <gridsvg:argument name="usePaths" value="none"/>
    <gridsvg:argument name="uniqueNames" value="TRUE"/>
    <gridsvg:separator name="id.sep" value="."/>
    <gridsvg:separator name="gPath.sep" value="::"/>
    <gridsvg:separator name="vpPath.sep" value="::"/>
  </metadata>
  <g transform="translate(0, 309.6) scale(1, -1)">
    <g id="Fig:densgridSVG" fill="none" stroke="rgb(0,0,0)" stroke-dasharray="none" stroke-width="0.75" font-size="12" font-family="Helvetica, Arial, FreeSans, Liberation Sans, Nimbus Sans L, sans-serif" opacity="1" stroke-linecap="round" stroke-linejoin="round" stroke-miterlimit="10" stroke-opacity="1" fill-opacity="0" font-weight="normal" font-style="normal">
      <g id="Fig:densplot_01.background.1">
        <rect id="Fig:densplot_01.background.1.1" x="0" y="0" width="288" height="309.6" fill="none" stroke="none" stroke-opacity="0" fill-opacity="0"/>
      </g>
      <g id="Fig:densplot_01.toplevel.vp.1" font-size="12">
        <g id="Fig:densplot_01.main.vp.1">
          <g id="Fig:densGRID.VP.31.1">
            <g id="Fig:dens.key.frame.1">
              <g id="Fig:densGRID.VP.32.1">
                <g id="Fig:densGRID.cellGrob.38.1">
                  <g id="Fig:dens.key.background.1">
                    <rect id="Fig:dens.key.background.1.1" x="89.63" y="257.62" width="108.74" height="45.98" fill="none" opacity="1" stroke="none" stroke-opacity="0" fill-opacity="0"/>
                  </g>
                </g>
              </g>
              <g id="Fig:densGRID.VP.33.1">
                <g id="Fig:densGRID.cellGrob.39.1">
                  <g id="Fig:dens.key.rect.1.1.1">
                    <rect id="Fig:dens.key.rect.1.1.1.1" x="96.3" y="292.1" width="33.36" height="11.5" opacity="1" fill="rgb(228,26,28)" stroke="rgb(0,0,0)" stroke-opacity="1" fill-opacity="1"/>
                  </g>
                </g>
              </g>
              <g id="Fig:densGRID.VP.34.1">
                <g id="Fig:densGRID.cellGrob.40.1">
                  <g id="Fig:dens.key.rect.1.2.1">
                    <rect id="Fig:dens.key.rect.1.2.1.1" x="96.3" y="280.61" width="33.36" height="11.5" opacity="1" fill="rgb(55,126,184)" stroke="rgb(0,0,0)" stroke-opacity="1" fill-opacity="1"/>
                  </g>
                </g>
              </g>
              <g id="Fig:densGRID.VP.35.1">
                <g id="Fig:densGRID.cellGrob.41.1">
                  <g id="Fig:dens.key.rect.1.3.1">
                    <rect id="Fig:dens.key.rect.1.3.1.1" x="96.3" y="269.11" width="33.36" height="11.5" opacity="1" fill="rgb(77,175,74)" stroke="rgb(0,0,0)" stroke-opacity="1" fill-opacity="1"/>
                  </g>
                </g>
              </g>
              <g id="Fig:densGRID.VP.36.1">
                <g id="Fig:densGRID.cellGrob.42.1">
                  <g id="Fig:dens.key.rect.1.4.1">
                    <rect id="Fig:dens.key.rect.1.4.1.1" x="96.3" y="257.62" width="33.36" height="11.5" opacity="1" fill="rgb(152,78,163)" stroke="rgb(0,0,0)" stroke-opacity="1" fill-opacity="1"/>
                  </g>
                </g>
              </g>
              <g id="Fig:densGRID.VP.37.1">
                <g id="Fig:densGRID.cellGrob.43.1">
                  <g id="Fig:dens.key.text.2.1.1">
                    <g id="Fig:dens.key.text.2.1.1.1" transform="translate(143, 297.85)" stroke-width="0.1">
                      <g id="Fig:dens.key.text.2.1.1.1.scale" transform="scale(1, -1)">
                        <text x="0" y="0" id="Fig:dens.key.text.2.1.1.1.text" text-anchor="start" stroke="rgb(0,0,0)" opacity="1" fill="rgb(0,0,0)" stroke-opacity="1" fill-opacity="1" font-size="12" font-weight="normal" font-style="normal">
                          <tspan id="Fig:dens.key.text.2.1.1.1.tspan.1" dy="4.31" x="0">N052611</tspan>
                        </text>
                      </g>
                    </g>
                  </g>
                </g>
              </g>
              <g id="Fig:densGRID.VP.38.1">
                <g id="Fig:densGRID.cellGrob.44.1">
                  <g id="Fig:dens.key.text.2.2.1">
                    <g id="Fig:dens.key.text.2.2.1.1" transform="translate(143, 286.36)" stroke-width="0.1">
                      <g id="Fig:dens.key.text.2.2.1.1.scale" transform="scale(1, -1)">
                        <text x="0" y="0" id="Fig:dens.key.text.2.2.1.1.text" text-anchor="start" stroke="rgb(0,0,0)" opacity="1" fill="rgb(0,0,0)" stroke-opacity="1" fill-opacity="1" font-size="12" font-weight="normal" font-style="normal">
                          <tspan id="Fig:dens.key.text.2.2.1.1.tspan.1" dy="4.31" x="0">N061011</tspan>
                        </text>
                      </g>
                    </g>
                  </g>
                </g>
              </g>
              <g id="Fig:densGRID.VP.39.1">
                <g id="Fig:densGRID.cellGrob.45.1">
                  <g id="Fig:dens.key.text.2.3.1">
                    <g id="Fig:dens.key.text.2.3.1.1" transform="translate(143, 274.86)" stroke-width="0.1">
                      <g id="Fig:dens.key.text.2.3.1.1.scale" transform="scale(1, -1)">
                        <text x="0" y="0" id="Fig:dens.key.text.2.3.1.1.text" text-anchor="start" stroke="rgb(0,0,0)" opacity="1" fill="rgb(0,0,0)" stroke-opacity="1" fill-opacity="1" font-size="12" font-weight="normal" font-style="normal">
                          <tspan id="Fig:dens.key.text.2.3.1.1.tspan.1" dy="4.31" x="0">N080611</tspan>
                        </text>
                      </g>
                    </g>
                  </g>
                </g>
              </g>
              <g id="Fig:densGRID.VP.40.1">
                <g id="Fig:densGRID.cellGrob.46.1">
                  <g id="Fig:dens.key.text.2.4.1">
                    <g id="Fig:dens.key.text.2.4.1.1" transform="translate(143, 263.36)" stroke-width="0.1">
                      <g id="Fig:dens.key.text.2.4.1.1.scale" transform="scale(1, -1)">
                        <text x="0" y="0" id="Fig:dens.key.text.2.4.1.1.text" text-anchor="start" stroke="rgb(0,0,0)" opacity="1" fill="rgb(0,0,0)" stroke-opacity="1" fill-opacity="1" font-size="12" font-weight="normal" font-style="normal">
                          <tspan id="Fig:dens.key.text.2.4.1.1.tspan.1" dy="4.31" x="0">N61311</tspan>
                        </text>
                      </g>
                    </g>
                  </g>
                </g>
              </g>
            </g>
          </g>
        </g>
        <g id="Fig:densplot_01.ylab.vp.1">
          <g id="Fig:densplot_01.ylab.1">
            <g id="Fig:densplot_01.ylab.1.1" transform="translate(10.31, 143.9)" stroke-width="0.1">
              <g id="Fig:densplot_01.ylab.1.1.scale" transform="scale(1, -1)">
                <text x="0" y="0" id="Fig:densplot_01.ylab.1.1.text" transform="rotate(-90)" text-anchor="middle" opacity="1" stroke="rgb(0,0,0)" fill="rgb(0,0,0)" stroke-opacity="1" fill-opacity="1" font-size="12" font-weight="normal" font-style="normal">
                  <tspan id="Fig:densplot_01.ylab.1.1.tspan.1" dy="4.31" x="0">Density</tspan>
                </text>
              </g>
            </g>
          </g>
        </g>
        <g id="Fig:densplot_01.figure.vp.1"/>
        <defs>
          <clipPath id="Fig:densplot_01.panel.1.1.vp.1.clipPath">
            <rect x="44.8" y="42.19" width="231.2" height="203.43" fill="none" stroke="none"/>
          </clipPath>
        </defs>
        <g id="Fig:densplot_01.panel.1.1.vp.1" clip-path="url(#Fig:densplot_01.panel.1.1.vp.1.clipPath)"/>
        <g id="Fig:densplot_01.strip.1.1.off.vp.1"/>
        <g id="Fig:densplot_01.strip.left.1.1.off.vp.1">
          <g id="Fig:densplot_01.ticks.left.panel.1.1.1">
            <polyline id="Fig:densplot_01.ticks.left.panel.1.1.1.1" points="44.8,54.68 39.13,54.68" stroke="rgb(0,0,0)" opacity="1" stroke-dasharray="none" stroke-width="0.75" stroke-opacity="1" fill="none"/>
            <polyline id="Fig:densplot_01.ticks.left.panel.1.1.1.2" points="44.8,91.86 39.13,91.86" stroke="rgb(0,0,0)" opacity="1" stroke-dasharray="none" stroke-width="0.75" stroke-opacity="1" fill="none"/>
            <polyline id="Fig:densplot_01.ticks.left.panel.1.1.1.3" points="44.8,129.04 39.13,129.04" stroke="rgb(0,0,0)" opacity="1" stroke-dasharray="none" stroke-width="0.75" stroke-opacity="1" fill="none"/>
            <polyline id="Fig:densplot_01.ticks.left.panel.1.1.1.4" points="44.8,166.22 39.13,166.22" stroke="rgb(0,0,0)" opacity="1" stroke-dasharray="none" stroke-width="0.75" stroke-opacity="1" fill="none"/>
            <polyline id="Fig:densplot_01.ticks.left.panel.1.1.1.5" points="44.8,203.4 39.13,203.4" stroke="rgb(0,0,0)" opacity="1" stroke-dasharray="none" stroke-width="0.75" stroke-opacity="1" fill="none"/>
            <polyline id="Fig:densplot_01.ticks.left.panel.1.1.1.6" points="44.8,240.58 39.13,240.58" stroke="rgb(0,0,0)" opacity="1" stroke-dasharray="none" stroke-width="0.75" stroke-opacity="1" fill="none"/>
          </g>
          <g id="Fig:densplot_01.ticklabels.left.panel.1.1.1">
            <g id="Fig:densplot_01.ticklabels.left.panel.1.1.1.1" transform="translate(33.47, 54.68)" stroke-width="0.1">
              <g id="Fig:densplot_01.ticklabels.left.panel.1.1.1.1.scale" transform="scale(1, -1)">
                <text x="0" y="0" id="Fig:densplot_01.ticklabels.left.panel.1.1.1.1.text" transform="rotate(-90)" text-anchor="middle" stroke="rgb(0,0,0)" opacity="1" fill="rgb(0,0,0)" stroke-opacity="1" fill-opacity="1" font-size="9.6" font-weight="normal" font-style="normal">
                  <tspan id="Fig:densplot_01.ticklabels.left.panel.1.1.1.1.tspan.1" dy="0" x="0">0.0</tspan>
                </text>
              </g>
            </g>
            <g id="Fig:densplot_01.ticklabels.left.panel.1.1.1.2" transform="translate(33.47, 91.86)" stroke-width="0.1">
              <g id="Fig:densplot_01.ticklabels.left.panel.1.1.1.2.scale" transform="scale(1, -1)">
                <text x="0" y="0" id="Fig:densplot_01.ticklabels.left.panel.1.1.1.2.text" transform="rotate(-90)" text-anchor="middle" stroke="rgb(0,0,0)" opacity="1" fill="rgb(0,0,0)" stroke-opacity="1" fill-opacity="1" font-size="9.6" font-weight="normal" font-style="normal">
                  <tspan id="Fig:densplot_01.ticklabels.left.panel.1.1.1.2.tspan.1" dy="0" x="0">0.2</tspan>
                </text>
              </g>
            </g>
            <g id="Fig:densplot_01.ticklabels.left.panel.1.1.1.3" transform="translate(33.47, 129.04)" stroke-width="0.1">
              <g id="Fig:densplot_01.ticklabels.left.panel.1.1.1.3.scale" transform="scale(1, -1)">
                <text x="0" y="0" id="Fig:densplot_01.ticklabels.left.panel.1.1.1.3.text" transform="rotate(-90)" text-anchor="middle" stroke="rgb(0,0,0)" opacity="1" fill="rgb(0,0,0)" stroke-opacity="1" fill-opacity="1" font-size="9.6" font-weight="normal" font-style="normal">
                  <tspan id="Fig:densplot_01.ticklabels.left.panel.1.1.1.3.tspan.1" dy="0" x="0">0.4</tspan>
                </text>
              </g>
            </g>
            <g id="Fig:densplot_01.ticklabels.left.panel.1.1.1.4" transform="translate(33.47, 166.22)" stroke-width="0.1">
              <g id="Fig:densplot_01.ticklabels.left.panel.1.1.1.4.scale" transform="scale(1, -1)">
                <text x="0" y="0" id="Fig:densplot_01.ticklabels.left.panel.1.1.1.4.text" transform="rotate(-90)" text-anchor="middle" stroke="rgb(0,0,0)" opacity="1" fill="rgb(0,0,0)" stroke-opacity="1" fill-opacity="1" font-size="9.6" font-weight="normal" font-style="normal">
                  <tspan id="Fig:densplot_01.ticklabels.left.panel.1.1.1.4.tspan.1" dy="0" x="0">0.6</tspan>
                </text>
              </g>
            </g>
            <g id="Fig:densplot_01.ticklabels.left.panel.1.1.1.5" transform="translate(33.47, 203.4)" stroke-width="0.1">
              <g id="Fig:densplot_01.ticklabels.left.panel.1.1.1.5.scale" transform="scale(1, -1)">
                <text x="0" y="0" id="Fig:densplot_01.ticklabels.left.panel.1.1.1.5.text" transform="rotate(-90)" text-anchor="middle" stroke="rgb(0,0,0)" opacity="1" fill="rgb(0,0,0)" stroke-opacity="1" fill-opacity="1" font-size="9.6" font-weight="normal" font-style="normal">
                  <tspan id="Fig:densplot_01.ticklabels.left.panel.1.1.1.5.tspan.1" dy="0" x="0">0.8</tspan>
                </text>
              </g>
            </g>
            <g id="Fig:densplot_01.ticklabels.left.panel.1.1.1.6" transform="translate(33.47, 240.58)" stroke-width="0.1">
              <g id="Fig:densplot_01.ticklabels.left.panel.1.1.1.6.scale" transform="scale(1, -1)">
                <text x="0" y="0" id="Fig:densplot_01.ticklabels.left.panel.1.1.1.6.text" transform="rotate(-90)" text-anchor="middle" stroke="rgb(0,0,0)" opacity="1" fill="rgb(0,0,0)" stroke-opacity="1" fill-opacity="1" font-size="9.6" font-weight="normal" font-style="normal">
                  <tspan id="Fig:densplot_01.ticklabels.left.panel.1.1.1.6.tspan.1" dy="0" x="0">1.0</tspan>
                </text>
              </g>
            </g>
          </g>
        </g>
        <g id="Fig:densplot_01.panel.1.1.off.vp.1">
          <g id="Fig:densplot_01.ticks.bottom.panel.1.1.1">
            <polyline id="Fig:densplot_01.ticks.bottom.panel.1.1.1.1" points="95.07,42.19 95.07,36.52" stroke="rgb(0,0,0)" opacity="1" stroke-dasharray="none" stroke-width="0.75" stroke-opacity="1" fill="none"/>
            <polyline id="Fig:densplot_01.ticks.bottom.panel.1.1.1.2" points="161.05,42.19 161.05,36.52" stroke="rgb(0,0,0)" opacity="1" stroke-dasharray="none" stroke-width="0.75" stroke-opacity="1" fill="none"/>
            <polyline id="Fig:densplot_01.ticks.bottom.panel.1.1.1.3" points="227.02,42.19 227.02,36.52" stroke="rgb(0,0,0)" opacity="1" stroke-dasharray="none" stroke-width="0.75" stroke-opacity="1" fill="none"/>
          </g>
          <g id="Fig:densplot_01.ticklabels.bottom.panel.1.1.1">
            <g id="Fig:densplot_01.ticklabels.bottom.panel.1.1.1.1" transform="translate(95.07, 30.85)" stroke-width="0.1">
              <g id="Fig:densplot_01.ticklabels.bottom.panel.1.1.1.1.scale" transform="scale(1, -1)">
                <text x="0" y="0" id="Fig:densplot_01.ticklabels.bottom.panel.1.1.1.1.text" text-anchor="middle" stroke="rgb(0,0,0)" opacity="1" fill="rgb(0,0,0)" stroke-opacity="1" fill-opacity="1" font-size="9.6" font-weight="normal" font-style="normal">
                  <tspan id="Fig:densplot_01.ticklabels.bottom.panel.1.1.1.1.tspan.1" dy="7.18" x="0">0</tspan>
                </text>
              </g>
            </g>
            <g id="Fig:densplot_01.ticklabels.bottom.panel.1.1.1.2" transform="translate(161.05, 30.85)" stroke-width="0.1">
              <g id="Fig:densplot_01.ticklabels.bottom.panel.1.1.1.2.scale" transform="scale(1, -1)">
                <text x="0" y="0" id="Fig:densplot_01.ticklabels.bottom.panel.1.1.1.2.text" text-anchor="middle" stroke="rgb(0,0,0)" opacity="1" fill="rgb(0,0,0)" stroke-opacity="1" fill-opacity="1" font-size="9.6" font-weight="normal" font-style="normal">
                  <tspan id="Fig:densplot_01.ticklabels.bottom.panel.1.1.1.2.tspan.1" dy="7.18" x="0">5</tspan>
                </text>
              </g>
            </g>
            <g id="Fig:densplot_01.ticklabels.bottom.panel.1.1.1.3" transform="translate(227.02, 30.85)" stroke-width="0.1">
              <g id="Fig:densplot_01.ticklabels.bottom.panel.1.1.1.3.scale" transform="scale(1, -1)">
                <text x="0" y="0" id="Fig:densplot_01.ticklabels.bottom.panel.1.1.1.3.text" text-anchor="middle" stroke="rgb(0,0,0)" opacity="1" fill="rgb(0,0,0)" stroke-opacity="1" fill-opacity="1" font-size="9.6" font-weight="normal" font-style="normal">
                  <tspan id="Fig:densplot_01.ticklabels.bottom.panel.1.1.1.3.tspan.1" dy="7.18" x="0">10</tspan>
                </text>
              </g>
            </g>
          </g>
        </g>
        <defs>
          <clipPath id="Fig:densplot_01.panel.1.1.vp.2.clipPath">
            <rect x="44.8" y="42.19" width="231.2" height="203.43" fill="none" stroke="none"/>
          </clipPath>
        </defs>
        <g id="Fig:densplot_01.panel.1.1.vp.2" clip-path="url(#Fig:densplot_01.panel.1.1.vp.2.clipPath)">
          <g id="Fig:densplot_01.xyplot.lines.group.1.panel.1.1.1">
            <polyline id="Fig:densplot_01.xyplot.lines.group.1.panel.1.1.1.1" points="59.01,54.93 59.41,55.06 59.81,55.24 60.2,55.49 60.6,55.82 61,56.27 61.4,56.85 61.79,57.6 62.19,58.53 62.59,59.66 62.98,60.98 63.38,62.49 63.78,64.19 64.17,66.03 64.57,67.99 64.97,70.01 65.36,72.02 65.76,73.94 66.16,75.69 66.55,77.23 66.95,78.49 67.35,79.45 67.74,80.08 68.14,80.39 68.54,80.4 68.93,80.13 69.33,79.62 69.73,78.92 70.13,78.11 70.52,77.22 70.92,76.29 71.32,75.36 71.71,74.44 72.11,73.55 72.51,72.69 72.9,71.87 73.3,71.09 73.7,70.37 74.09,69.69 74.49,69.06 74.89,68.48 75.28,67.94 75.68,67.46 76.08,67.01 76.47,66.61 76.87,66.23 77.27,65.89 77.66,65.57 78.06,65.27 78.46,64.99 78.86,64.73 79.25,64.48 79.65,64.26 80.05,64.06 80.44,63.89 80.84,63.74 81.24,63.62 81.63,63.52 82.03,63.44 82.43,63.38 82.82,63.33 83.22,63.3 83.62,63.28 84.01,63.28 84.41,63.31 84.81,63.37 85.2,63.49 85.6,63.71 86,64.05 86.4,64.57 86.79,65.34 87.19,66.46 87.59,68.03 87.98,70.19 88.38,73.07 88.78,76.85 89.17,81.75 89.57,87.98 89.97,95.58 90.36,104.61 90.76,115.05 91.16,126.82 91.55,139.7 91.95,153.39 92.35,167.48 92.74,181.47 93.14,194.71 93.54,206.45 93.93,216.16 94.33,223.34 94.73,227.61 95.13,228.75 95.52,226.69 95.92,221.53 96.32,213.54 96.71,203.15 97.11,190.8 97.51,177.19 97.9,163.06 98.3,148.96 98.7,135.38 99.09,122.69 99.49,111.18 99.89,101.02 100.28,92.3 100.68,85.01 101.08,79.12 101.47,74.51 101.87,70.93 102.27,68.19 102.66,66.16 103.06,64.68 103.46,63.62 103.86,62.89 104.25,62.39 104.65,62.06 105.05,61.85 105.44,61.72 105.84,61.63 106.24,61.58 106.63,61.55 107.03,61.53 107.43,61.51 107.82,61.5 108.22,61.5 108.62,61.49 109.01,61.49 109.41,61.49 109.81,61.48 110.2,61.47 110.6,61.46 111,61.45 111.39,61.43 111.79,61.41 112.19,61.38 112.59,61.35 112.98,61.31 113.38,61.26 113.78,61.21 114.17,61.16 114.57,61.1 114.97,61.05 115.36,60.99 115.76,60.93 116.16,60.88 116.55,60.82 116.95,60.78 117.35,60.73 117.74,60.69 118.14,60.66 118.54,60.62 118.93,60.6 119.33,60.57 119.73,60.55 120.12,60.53 120.52,60.52 120.92,60.5 121.32,60.48 121.71,60.47 122.11,60.45 122.51,60.43 122.9,60.41 123.3,60.39 123.7,60.37 124.09,60.35 124.49,60.33 124.89,60.3 125.28,60.28 125.68,60.24 126.08,60.21 126.47,60.17 126.87,60.12 127.27,60.08 127.66,60.03 128.06,59.98 128.46,59.94 128.85,59.89 129.25,59.85 129.65,59.81 130.05,59.78 130.44,59.75 130.84,59.73 131.24,59.72 131.63,59.7 132.03,59.69 132.43,59.69 132.82,59.68 133.22,59.68 133.62,59.67 134.01,59.67 134.41,59.66 134.81,59.65 135.2,59.63 135.6,59.62 136,59.6 136.39,59.58 136.79,59.56 137.19,59.53 137.58,59.51 137.98,59.49 138.38,59.46 138.78,59.44 139.17,59.42 139.57,59.39 139.97,59.37 140.36,59.35 140.76,59.32 141.16,59.3 141.55,59.27 141.95,59.25 142.35,59.22 142.74,59.2 143.14,59.18 143.54,59.16 143.93,59.14 144.33,59.13 144.73,59.12 145.12,59.11 145.52,59.11 145.92,59.11 146.32,59.12 146.71,59.13 147.11,59.14 147.51,59.15 147.9,59.16 148.3,59.17 148.7,59.18 149.09,59.19 149.49,59.19 149.89,59.19 150.28,59.19 150.68,59.18 151.08,59.17 151.47,59.15 151.87,59.13 152.27,59.1 152.66,59.08 153.06,59.05 153.46,59.02 153.85,58.99 154.25,58.95 154.65,58.92 155.05,58.89 155.44,58.86 155.84,58.84 156.24,58.81 156.63,58.79 157.03,58.77 157.43,58.76 157.82,58.75 158.22,58.75 158.62,58.74 159.01,58.75 159.41,58.75 159.81,58.76 160.2,58.77 160.6,58.78 161,58.79 161.39,58.8 161.79,58.8 162.19,58.81 162.58,58.81 162.98,58.81 163.38,58.8 163.78,58.8 164.17,58.79 164.57,58.78 164.97,58.76 165.36,58.74 165.76,58.72 166.16,58.71 166.55,58.69 166.95,58.67 167.35,58.65 167.74,58.63 168.14,58.61 168.54,58.59 168.93,58.58 169.33,58.57 169.73,58.56 170.12,58.55 170.52,58.55 170.92,58.55 171.31,58.55 171.71,58.55 172.11,58.55 172.51,58.56 172.9,58.57 173.3,58.59 173.7,58.61 174.09,58.63 174.49,58.65 174.89,58.68 175.28,58.71 175.68,58.74 176.08,58.77 176.47,58.8 176.87,58.84 177.27,58.87 177.66,58.9 178.06,58.93 178.46,58.96 178.85,58.99 179.25,59.01 179.65,59.04 180.04,59.07 180.44,59.1 180.84,59.13 181.24,59.17 181.63,59.2 182.03,59.24 182.43,59.29 182.82,59.33 183.22,59.38 183.62,59.42 184.01,59.47 184.41,59.51 184.81,59.55 185.2,59.58 185.6,59.61 186,59.64 186.39,59.65 186.79,59.66 187.19,59.67 187.58,59.68 187.98,59.68 188.38,59.68 188.77,59.68 189.17,59.69 189.57,59.7 189.97,59.72 190.36,59.74 190.76,59.78 191.16,59.81 191.55,59.86 191.95,59.91 192.35,59.97 192.74,60.03 193.14,60.1 193.54,60.17 193.93,60.23 194.33,60.3 194.73,60.37 195.12,60.44 195.52,60.51 195.92,60.57 196.31,60.63 196.71,60.69 197.11,60.74 197.5,60.79 197.9,60.84 198.3,60.88 198.7,60.93 199.09,60.97 199.49,61.02 199.89,61.06 200.28,61.11 200.68,61.16 201.08,61.21 201.47,61.27 201.87,61.33 202.27,61.39 202.66,61.45 203.06,61.52 203.46,61.59 203.85,61.66 204.25,61.72 204.65,61.79 205.04,61.85 205.44,61.91 205.84,61.97 206.24,62.01 206.63,62.06 207.03,62.09 207.43,62.12 207.82,62.14 208.22,62.15 208.62,62.16 209.01,62.16 209.41,62.16 209.81,62.15 210.2,62.14 210.6,62.13 211,62.13 211.39,62.12 211.79,62.12 212.19,62.11 212.58,62.12 212.98,62.12 213.38,62.13 213.77,62.14 214.17,62.15 214.57,62.17 214.97,62.18 215.36,62.19 215.76,62.21 216.16,62.22 216.55,62.22 216.95,62.23 217.35,62.23 217.74,62.22 218.14,62.21 218.54,62.19 218.93,62.17 219.33,62.14 219.73,62.11 220.12,62.07 220.52,62.03 220.92,61.98 221.31,61.94 221.71,61.89 222.11,61.85 222.5,61.8 222.9,61.75 223.3,61.71 223.7,61.66 224.09,61.62 224.49,61.58 224.89,61.53 225.28,61.49 225.68,61.45 226.08,61.41 226.47,61.37 226.87,61.33 227.27,61.29 227.66,61.25 228.06,61.2 228.46,61.16 228.85,61.11 229.25,61.07 229.65,61.02 230.04,60.96 230.44,60.91 230.84,60.85 231.23,60.78 231.63,60.72 232.03,60.65 232.43,60.57 232.82,60.5 233.22,60.41 233.62,60.33 234.01,60.24 234.41,60.14 234.81,60.04 235.2,59.94 235.6,59.84 236,59.73 236.39,59.63 236.79,59.52 237.19,59.41 237.58,59.31 237.98,59.21 238.38,59.11 238.77,59.02 239.17,58.93 239.57,58.85 239.96,58.77 240.36,58.7 240.76,58.63 241.16,58.57 241.55,58.51 241.95,58.45 242.35,58.4 242.74,58.34 243.14,58.28 243.54,58.23 243.93,58.17 244.33,58.11 244.73,58.05 245.12,57.98 245.52,57.91 245.92,57.84 246.31,57.77 246.71,57.69 247.11,57.61 247.5,57.52 247.9,57.43 248.3,57.33 248.69,57.23 249.09,57.13 249.49,57.02 249.89,56.91 250.28,56.79 250.68,56.67 251.08,56.54 251.47,56.41 251.87,56.28 252.27,56.14 252.66,56 253.06,55.87 253.46,55.73 253.85,55.6 254.25,55.48 254.65,55.37 255.04,55.26 255.44,55.16 255.84,55.07 256.23,55 256.63,54.93 257.03,54.88 257.42,54.83 257.82,54.8 258.22,54.77 258.62,54.74 259.01,54.72 259.41,54.71 259.81,54.7 260.2,54.69 260.6,54.69 261,54.68 261.39,54.68 261.79,54.68" stroke-dasharray="none" stroke="rgb(152,78,163)" stroke-width="0.75" opacity="1" stroke-opacity="1" fill="none" class="aqm1" onclick="plotObjRespond('click', 1, 'dens')" onmouseover="plotObjRespond('show', 1, 'dens')" onmouseout="plotObjRespond('hide', 1, 'dens')"/>
          </g>
          <g id="Fig:densplot_01.xyplot.lines.group.2.panel.1.1.1">
            <polyline id="Fig:densplot_01.xyplot.lines.group.2.panel.1.1.1.1" points="59.15,54.93 59.54,55.06 59.94,55.24 60.34,55.5 60.73,55.86 61.13,56.33 61.52,56.95 61.92,57.73 62.32,58.7 62.71,59.86 63.11,61.23 63.51,62.8 63.9,64.56 64.3,66.47 64.7,68.5 65.09,70.57 65.49,72.6 65.88,74.52 66.28,76.26 66.68,77.77 67.07,78.98 67.47,79.87 67.87,80.42 68.26,80.63 68.66,80.5 69.06,80.11 69.45,79.52 69.85,78.77 70.24,77.91 70.64,76.99 71.04,76.05 71.43,75.12 71.83,74.2 72.23,73.32 72.62,72.48 73.02,71.67 73.41,70.92 73.81,70.2 74.21,69.54 74.6,68.92 75,68.35 75.4,67.82 75.79,67.35 76.19,66.92 76.59,66.53 76.98,66.18 77.38,65.85 77.77,65.54 78.17,65.25 78.57,64.97 78.96,64.71 79.36,64.47 79.76,64.25 80.15,64.06 80.55,63.89 80.95,63.74 81.34,63.62 81.74,63.52 82.13,63.43 82.53,63.36 82.93,63.31 83.32,63.27 83.72,63.24 84.12,63.22 84.51,63.24 84.91,63.29 85.3,63.4 85.7,63.6 86.1,63.93 86.49,64.44 86.89,65.21 87.29,66.32 87.68,67.9 88.08,70.07 88.48,73.04 88.87,77.03 89.27,82.17 89.66,88.6 90.06,96.46 90.46,105.81 90.85,116.64 91.25,128.84 91.65,142.22 92.04,156.43 92.44,171.03 92.84,185.36 93.23,198.74 93.63,210.55 94.02,220.16 94.42,227.09 94.82,230.92 95.21,231.45 95.61,228.63 96.01,222.6 96.4,213.62 96.8,202.08 97.19,188.89 97.59,174.68 97.99,160.09 98.38,145.67 98.78,131.92 99.18,119.22 99.57,107.83 99.97,97.9 100.37,89.5 100.76,82.72 101.16,77.27 101.55,72.98 101.95,69.68 102.35,67.21 102.74,65.39 103.14,64.1 103.54,63.19 103.93,62.57 104.33,62.17 104.73,61.91 105.12,61.75 105.52,61.65 105.91,61.6 106.31,61.57 106.71,61.55 107.1,61.55 107.5,61.55 107.9,61.56 108.29,61.57 108.69,61.57 109.08,61.58 109.48,61.59 109.88,61.59 110.27,61.58 110.67,61.58 111.07,61.56 111.46,61.54 111.86,61.52 112.26,61.49 112.65,61.44 113.05,61.4 113.44,61.34 113.84,61.28 114.24,61.21 114.63,61.15 115.03,61.07 115.43,61 115.82,60.93 116.22,60.86 116.62,60.79 117.01,60.73 117.41,60.68 117.8,60.63 118.2,60.59 118.6,60.55 118.99,60.53 119.39,60.5 119.79,60.49 120.18,60.47 120.58,60.47 120.97,60.46 121.37,60.46 121.77,60.46 122.16,60.46 122.56,60.47 122.96,60.47 123.35,60.47 123.75,60.47 124.15,60.46 124.54,60.45 124.94,60.43 125.33,60.41 125.73,60.38 126.13,60.35 126.52,60.31 126.92,60.26 127.32,60.21 127.71,60.16 128.11,60.1 128.51,60.04 128.9,59.98 129.3,59.92 129.69,59.86 130.09,59.81 130.49,59.77 130.88,59.72 131.28,59.69 131.68,59.66 132.07,59.63 132.47,59.61 132.86,59.6 133.26,59.59 133.66,59.59 134.05,59.58 134.45,59.58 134.85,59.59 135.24,59.59 135.64,59.59 136.04,59.59 136.43,59.6 136.83,59.6 137.22,59.6 137.62,59.59 138.02,59.59 138.41,59.58 138.81,59.56 139.21,59.55 139.6,59.53 140,59.51 140.4,59.49 140.79,59.46 141.19,59.44 141.58,59.41 141.98,59.38 142.38,59.35 142.77,59.32 143.17,59.3 143.57,59.27 143.96,59.24 144.36,59.22 144.75,59.2 145.15,59.18 145.55,59.16 145.94,59.15 146.34,59.13 146.74,59.12 147.13,59.11 147.53,59.1 147.93,59.1 148.32,59.09 148.72,59.08 149.11,59.07 149.51,59.06 149.91,59.06 150.3,59.05 150.7,59.04 151.1,59.03 151.49,59.02 151.89,59.02 152.29,59.01 152.68,59 153.08,59 153.47,58.99 153.87,58.99 154.27,58.99 154.66,58.98 155.06,58.97 155.46,58.96 155.85,58.95 156.25,58.94 156.65,58.92 157.04,58.9 157.44,58.88 157.83,58.86 158.23,58.84 158.63,58.82 159.02,58.8 159.42,58.78 159.82,58.77 160.21,58.76 160.61,58.76 161,58.76 161.4,58.76 161.8,58.77 162.19,58.77 162.59,58.78 162.99,58.78 163.38,58.78 163.78,58.78 164.18,58.78 164.57,58.78 164.97,58.77 165.36,58.77 165.76,58.76 166.16,58.75 166.55,58.75 166.95,58.74 167.35,58.73 167.74,58.73 168.14,58.72 168.54,58.72 168.93,58.72 169.33,58.72 169.72,58.71 170.12,58.72 170.52,58.72 170.91,58.72 171.31,58.73 171.71,58.74 172.1,58.76 172.5,58.78 172.89,58.8 173.29,58.82 173.69,58.84 174.08,58.87 174.48,58.89 174.88,58.92 175.27,58.94 175.67,58.95 176.07,58.97 176.46,58.98 176.86,58.99 177.25,58.99 177.65,58.99 178.05,58.99 178.44,58.99 178.84,58.98 179.24,58.98 179.63,58.98 180.03,58.97 180.43,58.97 180.82,58.98 181.22,58.99 181.61,59 182.01,59.02 182.41,59.05 182.8,59.08 183.2,59.12 183.6,59.17 183.99,59.22 184.39,59.27 184.78,59.33 185.18,59.39 185.58,59.45 185.97,59.5 186.37,59.55 186.77,59.6 187.16,59.65 187.56,59.68 187.96,59.72 188.35,59.75 188.75,59.77 189.14,59.79 189.54,59.81 189.94,59.83 190.33,59.85 190.73,59.87 191.13,59.89 191.52,59.92 191.92,59.94 192.32,59.98 192.71,60.01 193.11,60.06 193.5,60.1 193.9,60.15 194.3,60.21 194.69,60.26 195.09,60.32 195.49,60.38 195.88,60.45 196.28,60.51 196.67,60.57 197.07,60.64 197.47,60.7 197.86,60.76 198.26,60.82 198.66,60.88 199.05,60.94 199.45,60.99 199.85,61.05 200.24,61.1 200.64,61.15 201.03,61.19 201.43,61.24 201.83,61.28 202.22,61.33 202.62,61.37 203.02,61.42 203.41,61.46 203.81,61.51 204.21,61.55 204.6,61.59 205,61.64 205.39,61.68 205.79,61.72 206.19,61.75 206.58,61.78 206.98,61.81 207.38,61.83 207.77,61.85 208.17,61.86 208.56,61.86 208.96,61.86 209.36,61.86 209.75,61.85 210.15,61.84 210.55,61.83 210.94,61.81 211.34,61.8 211.74,61.79 212.13,61.78 212.53,61.78 212.92,61.78 213.32,61.79 213.72,61.8 214.11,61.81 214.51,61.83 214.91,61.85 215.3,61.88 215.7,61.9 216.1,61.93 216.49,61.96 216.89,61.99 217.28,62.01 217.68,62.03 218.08,62.04 218.47,62.05 218.87,62.05 219.27,62.04 219.66,62.02 220.06,61.99 220.45,61.95 220.85,61.91 221.25,61.85 221.64,61.79 222.04,61.73 222.44,61.66 222.83,61.6 223.23,61.54 223.63,61.48 224.02,61.43 224.42,61.38 224.81,61.35 225.21,61.32 225.61,61.29 226,61.28 226.4,61.27 226.8,61.26 227.19,61.25 227.59,61.25 227.99,61.25 228.38,61.24 228.78,61.22 229.17,61.2 229.57,61.17 229.97,61.14 230.36,61.09 230.76,61.04 231.16,60.97 231.55,60.9 231.95,60.82 232.35,60.73 232.74,60.64 233.14,60.55 233.53,60.45 233.93,60.35 234.33,60.25 234.72,60.15 235.12,60.05 235.52,59.96 235.91,59.86 236.31,59.76 236.7,59.67 237.1,59.57 237.5,59.48 237.89,59.38 238.29,59.28 238.69,59.19 239.08,59.09 239.48,58.99 239.88,58.89 240.27,58.79 240.67,58.69 241.06,58.59 241.46,58.5 241.86,58.41 242.25,58.33 242.65,58.25 243.05,58.18 243.44,58.11 243.84,58.05 244.24,58 244.63,57.94 245.03,57.9 245.42,57.85 245.82,57.81 246.22,57.76 246.61,57.71 247.01,57.66 247.41,57.61 247.8,57.55 248.2,57.48 248.59,57.41 248.99,57.32 249.39,57.23 249.78,57.13 250.18,57.01 250.58,56.89 250.97,56.76 251.37,56.63 251.77,56.48 252.16,56.33 252.56,56.18 252.95,56.03 253.35,55.88 253.75,55.73 254.14,55.59 254.54,55.46 254.94,55.34 255.33,55.23 255.73,55.13 256.13,55.04 256.52,54.97 256.92,54.91 257.31,54.85 257.71,54.81 258.11,54.78 258.5,54.75 258.9,54.73 259.3,54.71 259.69,54.7 260.09,54.69 260.48,54.69 260.88,54.68 261.28,54.68 261.67,54.68" stroke-dasharray="none" stroke="rgb(152,78,163)" stroke-width="0.75" opacity="1" stroke-opacity="1" fill="none" class="aqm2" onclick="plotObjRespond('click', 2, 'dens')" onmouseover="plotObjRespond('show', 2, 'dens')" onmouseout="plotObjRespond('hide', 2, 'dens')"/>
          </g>
          <g id="Fig:densplot_01.xyplot.lines.group.3.panel.1.1.1">
            <polyline id="Fig:densplot_01.xyplot.lines.group.3.panel.1.1.1.1" points="59,54.93 59.4,55.05 59.8,55.23 60.19,55.48 60.59,55.82 60.99,56.26 61.38,56.84 61.78,57.59 62.18,58.52 62.57,59.64 62.97,60.96 63.37,62.47 63.76,64.17 64.16,66.02 64.56,67.98 64.95,70 65.35,72.01 65.75,73.93 66.14,75.69 66.54,77.23 66.94,78.5 67.33,79.46 67.73,80.09 68.13,80.4 68.52,80.4 68.92,80.13 69.32,79.61 69.71,78.92 70.11,78.1 70.51,77.21 70.91,76.29 71.3,75.35 71.7,74.43 72.1,73.53 72.49,72.67 72.89,71.85 73.29,71.08 73.68,70.35 74.08,69.66 74.48,69.03 74.87,68.44 75.27,67.9 75.67,67.41 76.06,66.96 76.46,66.55 76.86,66.18 77.25,65.84 77.65,65.52 78.05,65.23 78.44,64.95 78.84,64.7 79.24,64.47 79.63,64.26 80.03,64.07 80.43,63.91 80.82,63.77 81.22,63.65 81.62,63.55 82.01,63.48 82.41,63.41 82.81,63.36 83.2,63.32 83.6,63.29 84,63.28 84.39,63.29 84.79,63.34 85.19,63.44 85.58,63.64 85.98,63.96 86.38,64.46 86.77,65.21 87.17,66.3 87.57,67.84 87.96,69.95 88.36,72.8 88.76,76.52 89.15,81.39 89.55,87.56 89.95,95.09 90.34,104.06 90.74,114.46 91.14,126.18 91.53,139.04 91.93,152.73 92.33,166.86 92.72,180.91 93.12,194.23 93.52,206.08 93.91,215.94 94.31,223.28 94.71,227.73 95.1,229.05 95.5,227.15 95.9,222.14 96.29,214.27 96.69,203.96 97.09,191.64 97.49,178.06 97.88,163.92 98.28,149.78 98.68,136.13 99.07,123.37 99.47,111.77 99.87,101.53 100.26,92.72 100.66,85.34 101.06,79.39 101.45,74.71 101.85,71.06 102.25,68.27 102.64,66.18 103.04,64.66 103.44,63.58 103.83,62.83 104.23,62.31 104.63,61.98 105.02,61.77 105.42,61.64 105.82,61.56 106.21,61.52 106.61,61.5 107.01,61.49 107.4,61.49 107.8,61.5 108.2,61.5 108.59,61.51 108.99,61.52 109.39,61.52 109.78,61.52 110.18,61.51 110.58,61.49 110.97,61.47 111.37,61.45 111.77,61.41 112.16,61.37 112.56,61.32 112.96,61.27 113.35,61.22 113.75,61.16 114.15,61.1 114.54,61.03 114.94,60.97 115.34,60.91 115.73,60.85 116.13,60.8 116.53,60.75 116.92,60.71 117.32,60.67 117.72,60.64 118.11,60.61 118.51,60.58 118.91,60.56 119.3,60.55 119.7,60.53 120.1,60.52 120.49,60.51 120.89,60.5 121.29,60.49 121.68,60.47 122.08,60.46 122.48,60.45 122.87,60.44 123.27,60.42 123.67,60.41 124.07,60.39 124.46,60.38 124.86,60.36 125.26,60.34 125.65,60.32 126.05,60.29 126.45,60.26 126.84,60.23 127.24,60.19 127.64,60.15 128.03,60.11 128.43,60.06 128.83,60.01 129.22,59.95 129.62,59.9 130.02,59.85 130.41,59.8 130.81,59.75 131.21,59.71 131.6,59.68 132,59.65 132.4,59.62 132.79,59.6 133.19,59.58 133.59,59.57 133.98,59.56 134.38,59.55 134.78,59.55 135.17,59.54 135.57,59.53 135.97,59.52 136.36,59.51 136.76,59.5 137.16,59.48 137.55,59.47 137.95,59.45 138.35,59.43 138.74,59.42 139.14,59.4 139.54,59.38 139.93,59.36 140.33,59.34 140.73,59.33 141.12,59.31 141.52,59.3 141.92,59.28 142.31,59.27 142.71,59.26 143.11,59.25 143.5,59.24 143.9,59.23 144.3,59.22 144.69,59.21 145.09,59.2 145.49,59.18 145.88,59.17 146.28,59.15 146.68,59.13 147.07,59.11 147.47,59.08 147.87,59.05 148.26,59.02 148.66,58.99 149.06,58.96 149.45,58.92 149.85,58.89 150.25,58.86 150.65,58.84 151.04,58.81 151.44,58.79 151.84,58.77 152.23,58.76 152.63,58.75 153.03,58.75 153.42,58.74 153.82,58.74 154.22,58.75 154.61,58.75 155.01,58.76 155.41,58.76 155.8,58.77 156.2,58.77 156.6,58.77 156.99,58.77 157.39,58.77 157.79,58.77 158.18,58.77 158.58,58.77 158.98,58.76 159.37,58.76 159.77,58.76 160.17,58.76 160.56,58.76 160.96,58.77 161.36,58.77 161.75,58.78 162.15,58.79 162.55,58.8 162.94,58.81 163.34,58.82 163.74,58.84 164.13,58.85 164.53,58.85 164.93,58.86 165.32,58.87 165.72,58.87 166.12,58.87 166.51,58.87 166.91,58.86 167.31,58.86 167.7,58.85 168.1,58.85 168.5,58.85 168.89,58.84 169.29,58.84 169.69,58.84 170.08,58.84 170.48,58.84 170.88,58.84 171.27,58.84 171.67,58.85 172.07,58.85 172.46,58.85 172.86,58.85 173.26,58.85 173.65,58.85 174.05,58.84 174.45,58.84 174.84,58.84 175.24,58.83 175.64,58.83 176.03,58.83 176.43,58.83 176.83,58.83 177.23,58.83 177.62,58.84 178.02,58.85 178.42,58.86 178.81,58.88 179.21,58.9 179.61,58.93 180,58.96 180.4,58.99 180.8,59.03 181.19,59.07 181.59,59.11 181.99,59.16 182.38,59.21 182.78,59.27 183.18,59.32 183.57,59.37 183.97,59.43 184.37,59.48 184.76,59.52 185.16,59.57 185.56,59.61 185.95,59.64 186.35,59.67 186.75,59.7 187.14,59.73 187.54,59.75 187.94,59.77 188.33,59.8 188.73,59.82 189.13,59.84 189.52,59.86 189.92,59.89 190.32,59.91 190.71,59.94 191.11,59.98 191.51,60.01 191.9,60.05 192.3,60.09 192.7,60.14 193.09,60.18 193.49,60.24 193.89,60.29 194.28,60.35 194.68,60.42 195.08,60.48 195.47,60.55 195.87,60.62 196.27,60.68 196.66,60.75 197.06,60.82 197.46,60.88 197.85,60.94 198.25,61 198.65,61.05 199.04,61.11 199.44,61.16 199.84,61.21 200.23,61.26 200.63,61.32 201.03,61.37 201.42,61.42 201.82,61.47 202.22,61.53 202.61,61.58 203.01,61.64 203.41,61.69 203.81,61.74 204.2,61.79 204.6,61.84 205,61.88 205.39,61.93 205.79,61.96 206.19,61.99 206.58,62.02 206.98,62.05 207.38,62.07 207.77,62.08 208.17,62.09 208.57,62.1 208.96,62.1 209.36,62.1 209.76,62.1 210.15,62.09 210.55,62.09 210.95,62.08 211.34,62.08 211.74,62.08 212.14,62.08 212.53,62.08 212.93,62.09 213.33,62.1 213.72,62.11 214.12,62.12 214.52,62.13 214.91,62.14 215.31,62.15 215.71,62.16 216.1,62.17 216.5,62.18 216.9,62.18 217.29,62.17 217.69,62.16 218.09,62.15 218.48,62.13 218.88,62.1 219.28,62.07 219.67,62.04 220.07,62 220.47,61.97 220.86,61.93 221.26,61.89 221.66,61.86 222.05,61.82 222.45,61.79 222.85,61.75 223.24,61.72 223.64,61.69 224.04,61.66 224.43,61.62 224.83,61.59 225.23,61.56 225.62,61.52 226.02,61.48 226.42,61.44 226.81,61.39 227.21,61.34 227.61,61.29 228,61.24 228.4,61.19 228.8,61.13 229.19,61.08 229.59,61.02 229.99,60.97 230.39,60.91 230.78,60.85 231.18,60.79 231.58,60.72 231.97,60.65 232.37,60.57 232.77,60.49 233.16,60.4 233.56,60.3 233.96,60.2 234.35,60.09 234.75,59.97 235.15,59.85 235.54,59.73 235.94,59.62 236.34,59.5 236.73,59.39 237.13,59.28 237.53,59.19 237.92,59.09 238.32,59.01 238.72,58.93 239.11,58.86 239.51,58.8 239.91,58.74 240.3,58.68 240.7,58.62 241.1,58.56 241.49,58.51 241.89,58.45 242.29,58.39 242.68,58.33 243.08,58.27 243.48,58.21 243.87,58.15 244.27,58.08 244.67,58.02 245.06,57.96 245.46,57.89 245.86,57.83 246.25,57.76 246.65,57.69 247.05,57.61 247.44,57.53 247.84,57.45 248.24,57.36 248.63,57.26 249.03,57.15 249.43,57.04 249.82,56.92 250.22,56.79 250.62,56.65 251.01,56.51 251.41,56.37 251.81,56.22 252.2,56.07 252.6,55.93 253,55.79 253.39,55.65 253.79,55.52 254.19,55.4 254.58,55.29 254.98,55.19 255.38,55.1 255.77,55.02 256.17,54.95 256.57,54.89 256.97,54.84 257.36,54.8 257.76,54.77 258.16,54.75 258.55,54.73 258.95,54.71 259.35,54.7 259.74,54.69 260.14,54.69 260.54,54.69 260.93,54.68 261.33,54.68 261.73,54.68" stroke-dasharray="none" stroke="rgb(228,26,28)" stroke-width="0.75" opacity="1" stroke-opacity="1" fill="none" class="aqm3" onclick="plotObjRespond('click', 3, 'dens')" onmouseover="plotObjRespond('show', 3, 'dens')" onmouseout="plotObjRespond('hide', 3, 'dens')"/>
          </g>
          <g id="Fig:densplot_01.xyplot.lines.group.4.panel.1.1.1">
            <polyline id="Fig:densplot_01.xyplot.lines.group.4.panel.1.1.1.1" points="59.21,54.93 59.6,55.06 60,55.25 60.4,55.51 60.79,55.88 61.19,56.36 61.59,56.99 61.98,57.78 62.38,58.77 62.77,59.95 63.17,61.34 63.57,62.94 63.96,64.72 64.36,66.67 64.75,68.71 65.15,70.79 65.55,72.83 65.94,74.76 66.34,76.49 66.74,77.98 67.13,79.18 67.53,80.03 67.92,80.55 68.32,80.7 68.72,80.53 69.11,80.11 69.51,79.48 69.9,78.7 70.3,77.83 70.7,76.9 71.09,75.95 71.49,75.01 71.89,74.1 72.28,73.23 72.68,72.39 73.07,71.6 73.47,70.85 73.87,70.15 74.26,69.49 74.66,68.88 75.05,68.31 75.45,67.8 75.85,67.33 76.24,66.91 76.64,66.52 77.04,66.17 77.43,65.84 77.83,65.53 78.22,65.24 78.62,64.97 79.02,64.72 79.41,64.49 79.81,64.27 80.2,64.09 80.6,63.93 81,63.8 81.39,63.68 81.79,63.59 82.19,63.52 82.58,63.46 82.98,63.41 83.37,63.37 83.77,63.34 84.17,63.33 84.56,63.34 84.96,63.39 85.36,63.5 85.75,63.7 86.15,64.03 86.54,64.55 86.94,65.33 87.34,66.46 87.73,68.07 88.13,70.28 88.52,73.38 88.92,77.47 89.32,82.73 89.71,89.31 90.11,97.33 90.51,106.85 90.9,117.86 91.3,130.25 91.69,143.78 92.09,158.14 92.49,172.82 92.88,187.13 93.28,200.43 93.67,212.08 94.07,221.48 94.47,228.12 94.86,231.63 95.26,231.79 95.66,228.58 96.05,222.15 96.45,212.68 96.84,200.89 97.24,187.49 97.64,173.16 98.03,158.5 98.43,144.09 98.82,130.39 99.22,117.8 99.62,106.54 100.01,96.78 100.41,88.62 100.81,82 101.2,76.69 101.6,72.52 101.99,69.33 102.39,66.94 102.79,65.19 103.18,63.94 103.58,63.07 103.97,62.48 104.37,62.09 104.77,61.84 105.16,61.69 105.56,61.59 105.96,61.54 106.35,61.51 106.75,61.49 107.14,61.49 107.54,61.49 107.94,61.5 108.33,61.51 108.73,61.51 109.12,61.52 109.52,61.52 109.92,61.52 110.31,61.51 110.71,61.5 111.11,61.49 111.5,61.47 111.9,61.45 112.29,61.42 112.69,61.38 113.09,61.34 113.48,61.29 113.88,61.24 114.28,61.19 114.67,61.13 115.07,61.07 115.46,61.01 115.86,60.95 116.26,60.89 116.65,60.83 117.05,60.77 117.44,60.72 117.84,60.67 118.24,60.63 118.63,60.59 119.03,60.56 119.43,60.53 119.82,60.51 120.22,60.49 120.61,60.48 121.01,60.47 121.41,60.47 121.8,60.46 122.2,60.46 122.59,60.46 122.99,60.45 123.39,60.45 123.78,60.44 124.18,60.43 124.58,60.42 124.97,60.4 125.37,60.38 125.76,60.35 126.16,60.31 126.56,60.28 126.95,60.23 127.35,60.19 127.74,60.14 128.14,60.08 128.54,60.03 128.93,59.98 129.33,59.93 129.73,59.87 130.12,59.83 130.52,59.78 130.91,59.74 131.31,59.7 131.71,59.67 132.1,59.64 132.5,59.61 132.89,59.59 133.29,59.57 133.69,59.56 134.08,59.56 134.48,59.55 134.88,59.55 135.27,59.56 135.67,59.56 136.06,59.57 136.46,59.57 136.86,59.58 137.25,59.58 137.65,59.58 138.04,59.57 138.44,59.56 138.84,59.55 139.23,59.53 139.63,59.51 140.03,59.49 140.42,59.46 140.82,59.44 141.21,59.41 141.61,59.39 142.01,59.37 142.4,59.34 142.8,59.32 143.2,59.3 143.59,59.28 143.99,59.25 144.38,59.23 144.78,59.2 145.18,59.18 145.57,59.15 145.97,59.11 146.36,59.08 146.76,59.04 147.16,59.01 147.55,58.97 147.95,58.94 148.35,58.9 148.74,58.87 149.14,58.85 149.53,58.83 149.93,58.81 150.33,58.8 150.72,58.79 151.12,58.79 151.51,58.79 151.91,58.79 152.31,58.8 152.7,58.81 153.1,58.82 153.5,58.83 153.89,58.83 154.29,58.84 154.68,58.85 155.08,58.85 155.48,58.86 155.87,58.86 156.27,58.86 156.66,58.86 157.06,58.85 157.46,58.85 157.85,58.84 158.25,58.84 158.65,58.83 159.04,58.83 159.44,58.82 159.83,58.82 160.23,58.81 160.63,58.81 161.02,58.81 161.42,58.82 161.81,58.82 162.21,58.83 162.61,58.83 163,58.84 163.4,58.85 163.8,58.85 164.19,58.86 164.59,58.87 164.98,58.88 165.38,58.88 165.78,58.89 166.17,58.89 166.57,58.9 166.96,58.9 167.36,58.91 167.76,58.91 168.15,58.92 168.55,58.92 168.95,58.93 169.34,58.94 169.74,58.95 170.13,58.96 170.53,58.97 170.93,58.97 171.32,58.98 171.72,58.99 172.12,59 172.51,59 172.91,59 173.3,59 173.7,58.99 174.1,58.98 174.49,58.97 174.89,58.96 175.28,58.94 175.68,58.93 176.08,58.91 176.47,58.9 176.87,58.88 177.27,58.87 177.66,58.86 178.06,58.85 178.45,58.85 178.85,58.85 179.25,58.86 179.64,58.87 180.04,58.89 180.43,58.91 180.83,58.94 181.23,58.97 181.62,59.01 182.02,59.05 182.42,59.1 182.81,59.14 183.21,59.2 183.6,59.25 184,59.31 184.4,59.36 184.79,59.42 185.19,59.48 185.58,59.53 185.98,59.58 186.38,59.63 186.77,59.68 187.17,59.72 187.57,59.75 187.96,59.79 188.36,59.82 188.75,59.85 189.15,59.87 189.55,59.9 189.94,59.92 190.34,59.95 190.73,59.98 191.13,60 191.53,60.04 191.92,60.07 192.32,60.11 192.72,60.15 193.11,60.19 193.51,60.23 193.9,60.28 194.3,60.33 194.7,60.38 195.09,60.43 195.49,60.48 195.88,60.53 196.28,60.58 196.68,60.63 197.07,60.68 197.47,60.73 197.87,60.78 198.26,60.83 198.66,60.87 199.05,60.92 199.45,60.96 199.85,61 200.24,61.03 200.64,61.07 201.03,61.1 201.43,61.13 201.83,61.17 202.22,61.2 202.62,61.23 203.02,61.27 203.41,61.31 203.81,61.35 204.2,61.4 204.6,61.45 205,61.5 205.39,61.54 205.79,61.59 206.19,61.63 206.58,61.67 206.98,61.7 207.37,61.73 207.77,61.74 208.17,61.75 208.56,61.76 208.96,61.76 209.35,61.76 209.75,61.75 210.15,61.75 210.54,61.75 210.94,61.75 211.34,61.75 211.73,61.76 212.13,61.77 212.52,61.79 212.92,61.81 213.32,61.84 213.71,61.87 214.11,61.9 214.5,61.93 214.9,61.96 215.3,61.99 215.69,62.02 216.09,62.05 216.49,62.07 216.88,62.09 217.28,62.09 217.67,62.09 218.07,62.09 218.47,62.07 218.86,62.05 219.26,62.02 219.65,61.97 220.05,61.93 220.45,61.87 220.84,61.81 221.24,61.75 221.64,61.68 222.03,61.62 222.43,61.55 222.82,61.49 223.22,61.43 223.62,61.37 224.01,61.32 224.41,61.28 224.8,61.25 225.2,61.22 225.6,61.19 225.99,61.17 226.39,61.15 226.79,61.14 227.18,61.12 227.58,61.11 227.97,61.09 228.37,61.07 228.77,61.05 229.16,61.02 229.56,60.99 229.95,60.96 230.35,60.92 230.75,60.88 231.14,60.84 231.54,60.79 231.94,60.74 232.33,60.69 232.73,60.63 233.12,60.56 233.52,60.49 233.92,60.42 234.31,60.34 234.71,60.25 235.11,60.16 235.5,60.06 235.9,59.96 236.29,59.86 236.69,59.75 237.09,59.64 237.48,59.53 237.88,59.42 238.27,59.31 238.67,59.2 239.07,59.1 239.46,58.99 239.86,58.9 240.26,58.81 240.65,58.72 241.05,58.64 241.44,58.56 241.84,58.49 242.24,58.42 242.63,58.36 243.03,58.3 243.42,58.24 243.82,58.18 244.22,58.13 244.61,58.07 245.01,58.01 245.41,57.95 245.8,57.89 246.2,57.83 246.59,57.76 246.99,57.69 247.39,57.61 247.78,57.53 248.18,57.45 248.57,57.36 248.97,57.27 249.37,57.16 249.76,57.06 250.16,56.95 250.56,56.83 250.95,56.7 251.35,56.57 251.74,56.43 252.14,56.29 252.54,56.14 252.93,56 253.33,55.85 253.72,55.71 254.12,55.58 254.52,55.45 254.91,55.33 255.31,55.22 255.71,55.12 256.1,55.04 256.5,54.96 256.89,54.9 257.29,54.85 257.69,54.81 258.08,54.77 258.48,54.75 258.87,54.73 259.27,54.71 259.67,54.7 260.06,54.69 260.46,54.69 260.86,54.68 261.25,54.68 261.65,54.68" stroke-dasharray="none" stroke="rgb(228,26,28)" stroke-width="0.75" opacity="1" stroke-opacity="1" fill="none" class="aqm4" onclick="plotObjRespond('click', 4, 'dens')" onmouseover="plotObjRespond('show', 4, 'dens')" onmouseout="plotObjRespond('hide', 4, 'dens')"/>
          </g>
          <g id="Fig:densplot_01.xyplot.lines.group.5.panel.1.1.1">
            <polyline id="Fig:densplot_01.xyplot.lines.group.5.panel.1.1.1.1" points="59.01,54.93 59.4,55.05 59.8,55.23 60.2,55.48 60.59,55.82 60.99,56.26 61.39,56.85 61.78,57.6 62.18,58.52 62.58,59.65 62.97,60.97 63.37,62.48 63.77,64.18 64.16,66.02 64.56,67.99 64.96,70.01 65.35,72.02 65.75,73.94 66.15,75.7 66.54,77.24 66.94,78.51 67.34,79.47 67.73,80.1 68.13,80.41 68.53,80.41 68.92,80.14 69.32,79.62 69.72,78.92 70.11,78.1 70.51,77.21 70.91,76.29 71.3,75.35 71.7,74.43 72.1,73.53 72.49,72.66 72.89,71.84 73.29,71.06 73.68,70.33 74.08,69.65 74.48,69.01 74.87,68.42 75.27,67.88 75.67,67.39 76.06,66.94 76.46,66.53 76.86,66.16 77.25,65.81 77.65,65.5 78.05,65.2 78.44,64.93 78.84,64.68 79.24,64.45 79.63,64.24 80.03,64.05 80.43,63.89 80.82,63.76 81.22,63.65 81.62,63.56 82.01,63.48 82.41,63.42 82.81,63.38 83.2,63.34 83.6,63.32 84,63.31 84.39,63.33 84.79,63.38 85.19,63.49 85.58,63.68 85.98,63.99 86.38,64.49 86.77,65.23 87.17,66.31 87.57,67.83 87.96,69.94 88.36,72.76 88.76,76.48 89.15,81.33 89.55,87.48 89.95,95.01 90.34,103.97 90.74,114.36 91.14,126.08 91.53,138.94 91.93,152.63 92.33,166.76 92.72,180.82 93.12,194.14 93.52,206 93.91,215.86 94.31,223.21 94.71,227.66 95.1,228.97 95.5,227.07 95.9,222.05 96.3,214.18 96.69,203.86 97.09,191.54 97.49,177.95 97.88,163.8 98.28,149.66 98.68,136.02 99.07,123.26 99.47,111.68 99.87,101.45 100.26,92.66 100.66,85.3 101.06,79.38 101.45,74.72 101.85,71.09 102.25,68.31 102.64,66.25 103.04,64.74 103.44,63.66 103.83,62.91 104.23,62.39 104.63,62.04 105.02,61.82 105.42,61.68 105.82,61.59 106.21,61.54 106.61,61.51 107.01,61.49 107.4,61.49 107.8,61.49 108.2,61.49 108.59,61.5 108.99,61.5 109.39,61.5 109.78,61.5 110.18,61.49 110.58,61.48 110.97,61.46 111.37,61.43 111.77,61.4 112.16,61.36 112.56,61.32 112.96,61.27 113.35,61.23 113.75,61.18 114.15,61.12 114.54,61.07 114.94,61.02 115.34,60.97 115.73,60.92 116.13,60.87 116.53,60.82 116.92,60.78 117.32,60.74 117.72,60.7 118.11,60.67 118.51,60.64 118.91,60.61 119.3,60.59 119.7,60.57 120.1,60.56 120.49,60.55 120.89,60.54 121.29,60.53 121.68,60.53 122.08,60.52 122.48,60.52 122.87,60.51 123.27,60.5 123.67,60.49 124.06,60.47 124.46,60.46 124.86,60.43 125.25,60.41 125.65,60.37 126.05,60.34 126.44,60.3 126.84,60.25 127.24,60.21 127.63,60.16 128.03,60.11 128.43,60.05 128.82,60 129.22,59.95 129.62,59.9 130.01,59.86 130.41,59.81 130.81,59.77 131.2,59.74 131.6,59.71 132,59.68 132.39,59.66 132.79,59.64 133.19,59.62 133.58,59.61 133.98,59.6 134.38,59.6 134.77,59.59 135.17,59.59 135.57,59.58 135.96,59.58 136.36,59.57 136.76,59.56 137.15,59.55 137.55,59.54 137.95,59.53 138.34,59.51 138.74,59.49 139.14,59.47 139.54,59.45 139.93,59.43 140.33,59.41 140.73,59.38 141.12,59.36 141.52,59.34 141.92,59.31 142.31,59.3 142.71,59.28 143.11,59.27 143.5,59.26 143.9,59.25 144.3,59.25 144.69,59.25 145.09,59.25 145.49,59.25 145.88,59.26 146.28,59.27 146.68,59.27 147.07,59.27 147.47,59.27 147.87,59.27 148.26,59.27 148.66,59.26 149.06,59.25 149.45,59.24 149.85,59.22 150.25,59.21 150.64,59.19 151.04,59.16 151.44,59.14 151.83,59.11 152.23,59.08 152.63,59.05 153.02,59.01 153.42,58.98 153.82,58.95 154.21,58.91 154.61,58.88 155.01,58.85 155.4,58.82 155.8,58.79 156.2,58.77 156.59,58.75 156.99,58.74 157.39,58.73 157.78,58.72 158.18,58.72 158.58,58.71 158.97,58.72 159.37,58.72 159.77,58.73 160.16,58.73 160.56,58.74 160.96,58.75 161.35,58.76 161.75,58.77 162.15,58.79 162.54,58.8 162.94,58.81 163.34,58.81 163.73,58.82 164.13,58.82 164.53,58.82 164.92,58.82 165.32,58.82 165.72,58.81 166.11,58.8 166.51,58.79 166.91,58.77 167.3,58.76 167.7,58.74 168.1,58.73 168.49,58.71 168.89,58.69 169.29,58.68 169.68,58.67 170.08,58.66 170.48,58.65 170.87,58.64 171.27,58.64 171.67,58.63 172.06,58.64 172.46,58.64 172.86,58.65 173.25,58.66 173.65,58.67 174.05,58.68 174.44,58.7 174.84,58.71 175.24,58.72 175.63,58.74 176.03,58.76 176.43,58.77 176.82,58.79 177.22,58.8 177.62,58.82 178.01,58.83 178.41,58.85 178.81,58.87 179.2,58.89 179.6,58.92 180,58.94 180.39,58.97 180.79,59 181.19,59.04 181.58,59.08 181.98,59.12 182.38,59.16 182.78,59.21 183.17,59.26 183.57,59.31 183.97,59.36 184.36,59.41 184.76,59.46 185.16,59.51 185.55,59.55 185.95,59.6 186.35,59.63 186.74,59.67 187.14,59.7 187.54,59.72 187.93,59.74 188.33,59.76 188.73,59.77 189.12,59.79 189.52,59.8 189.92,59.82 190.31,59.84 190.71,59.87 191.11,59.9 191.5,59.94 191.9,59.98 192.3,60.03 192.69,60.09 193.09,60.15 193.49,60.21 193.88,60.27 194.28,60.33 194.68,60.39 195.07,60.45 195.47,60.51 195.87,60.56 196.26,60.61 196.66,60.66 197.06,60.71 197.45,60.76 197.85,60.8 198.25,60.85 198.64,60.89 199.04,60.94 199.44,60.98 199.83,61.03 200.23,61.08 200.63,61.13 201.02,61.19 201.42,61.24 201.82,61.3 202.21,61.36 202.61,61.42 203.01,61.47 203.4,61.53 203.8,61.59 204.2,61.65 204.59,61.7 204.99,61.75 205.39,61.8 205.78,61.84 206.18,61.88 206.58,61.92 206.97,61.95 207.37,61.98 207.77,62 208.16,62.02 208.56,62.03 208.96,62.04 209.35,62.04 209.75,62.03 210.15,62.03 210.54,62.02 210.94,62.01 211.34,62 211.73,62 212.13,61.99 212.53,61.99 212.92,62 213.32,62.01 213.72,62.02 214.11,62.04 214.51,62.06 214.91,62.08 215.3,62.1 215.7,62.12 216.1,62.14 216.49,62.16 216.89,62.17 217.29,62.17 217.68,62.17 218.08,62.16 218.48,62.15 218.87,62.13 219.27,62.11 219.67,62.08 220.06,62.05 220.46,62.01 220.86,61.98 221.25,61.94 221.65,61.9 222.05,61.87 222.44,61.83 222.84,61.79 223.24,61.75 223.63,61.71 224.03,61.66 224.43,61.62 224.83,61.58 225.22,61.53 225.62,61.49 226.02,61.44 226.41,61.39 226.81,61.35 227.21,61.3 227.6,61.25 228,61.21 228.4,61.16 228.79,61.12 229.19,61.07 229.59,61.02 229.98,60.97 230.38,60.91 230.78,60.85 231.17,60.79 231.57,60.72 231.97,60.65 232.36,60.57 232.76,60.49 233.16,60.41 233.55,60.32 233.95,60.23 234.35,60.13 234.74,60.04 235.14,59.94 235.54,59.83 235.93,59.73 236.33,59.62 236.73,59.52 237.12,59.42 237.52,59.32 237.92,59.22 238.31,59.13 238.71,59.04 239.11,58.96 239.5,58.88 239.9,58.8 240.3,58.74 240.69,58.67 241.09,58.61 241.49,58.55 241.88,58.49 242.28,58.44 242.68,58.38 243.07,58.32 243.47,58.25 243.87,58.19 244.26,58.13 244.66,58.06 245.06,57.99 245.45,57.92 245.85,57.85 246.25,57.78 246.64,57.7 247.04,57.63 247.44,57.55 247.83,57.47 248.23,57.38 248.63,57.29 249.02,57.2 249.42,57.1 249.82,57 250.21,56.89 250.61,56.77 251.01,56.65 251.4,56.52 251.8,56.38 252.2,56.24 252.59,56.1 252.99,55.96 253.39,55.82 253.78,55.68 254.18,55.55 254.58,55.43 254.97,55.31 255.37,55.21 255.77,55.12 256.16,55.03 256.56,54.96 256.96,54.9 257.35,54.85 257.75,54.81 258.15,54.78 258.54,54.75 258.94,54.73 259.34,54.71 259.73,54.7 260.13,54.69 260.53,54.69 260.92,54.68 261.32,54.68 261.72,54.68" stroke-dasharray="none" stroke="rgb(77,175,74)" stroke-width="0.75" opacity="1" stroke-opacity="1" fill="none" class="aqm5" onclick="plotObjRespond('click', 5, 'dens')" onmouseover="plotObjRespond('show', 5, 'dens')" onmouseout="plotObjRespond('hide', 5, 'dens')"/>
          </g>
          <g id="Fig:densplot_01.xyplot.lines.group.6.panel.1.1.1">
            <polyline id="Fig:densplot_01.xyplot.lines.group.6.panel.1.1.1.1" points="59.13,54.93 59.52,55.05 59.92,55.23 60.32,55.5 60.71,55.85 61.11,56.33 61.5,56.95 61.9,57.73 62.3,58.71 62.69,59.88 63.09,61.26 63.49,62.85 63.88,64.64 64.28,66.59 64.67,68.64 65.07,70.73 65.47,72.78 65.86,74.73 66.26,76.49 66.66,78 67.05,79.22 67.45,80.1 67.84,80.63 68.24,80.79 68.64,80.63 69.03,80.21 69.43,79.59 69.82,78.81 70.22,77.92 70.62,76.98 71.01,76.01 71.41,75.05 71.81,74.12 72.2,73.22 72.6,72.37 72.99,71.56 73.39,70.8 73.79,70.08 74.18,69.41 74.58,68.79 74.98,68.22 75.37,67.7 75.77,67.23 76.16,66.8 76.56,66.41 76.96,66.05 77.35,65.72 77.75,65.41 78.15,65.11 78.54,64.84 78.94,64.59 79.33,64.36 79.73,64.15 80.13,63.98 80.52,63.83 80.92,63.7 81.31,63.6 81.71,63.51 82.11,63.44 82.5,63.38 82.9,63.34 83.3,63.3 83.69,63.27 84.09,63.25 84.48,63.26 84.88,63.31 85.28,63.41 85.67,63.59 86.07,63.89 86.47,64.36 86.86,65.07 87.26,66.12 87.65,67.61 88.05,69.69 88.45,72.6 88.84,76.47 89.24,81.47 89.63,87.76 90.03,95.48 90.43,104.7 90.82,115.43 91.22,127.59 91.62,140.98 92.01,155.29 92.41,170.04 92.8,184.56 93.2,198.2 93.6,210.32 93.99,220.29 94.39,227.58 94.79,231.76 95.18,232.6 95.58,230.03 95.97,224.15 96.37,215.04 96.77,203.54 97.16,190.32 97.56,176.02 97.95,161.29 98.35,146.7 98.75,132.76 99.14,119.87 99.54,108.31 99.94,98.24 100.33,89.85 100.73,82.97 101.12,77.45 101.52,73.1 101.92,69.77 102.31,67.27 102.71,65.45 103.11,64.14 103.5,63.22 103.9,62.6 104.29,62.19 104.69,61.92 105.09,61.74 105.48,61.62 105.88,61.55 106.27,61.49 106.67,61.46 107.07,61.44 107.46,61.43 107.86,61.43 108.26,61.43 108.65,61.44 109.05,61.45 109.44,61.46 109.84,61.47 110.24,61.47 110.63,61.47 111.03,61.47 111.43,61.46 111.82,61.44 112.22,61.42 112.61,61.38 113.01,61.34 113.41,61.3 113.8,61.24 114.2,61.19 114.59,61.13 114.99,61.07 115.39,61.01 115.78,60.95 116.18,60.89 116.58,60.84 116.97,60.79 117.37,60.74 117.76,60.7 118.16,60.66 118.56,60.63 118.95,60.6 119.35,60.57 119.75,60.54 120.14,60.52 120.54,60.5 120.93,60.48 121.33,60.46 121.73,60.44 122.12,60.43 122.52,60.42 122.91,60.4 123.31,60.39 123.71,60.39 124.1,60.38 124.5,60.37 124.9,60.37 125.29,60.36 125.69,60.35 126.08,60.34 126.48,60.33 126.88,60.31 127.27,60.29 127.67,60.26 128.07,60.22 128.46,60.18 128.86,60.14 129.25,60.09 129.65,60.03 130.05,59.98 130.44,59.92 130.84,59.87 131.23,59.82 131.63,59.77 132.03,59.73 132.42,59.7 132.82,59.67 133.22,59.65 133.61,59.63 134.01,59.62 134.4,59.62 134.8,59.61 135.2,59.61 135.59,59.6 135.99,59.6 136.39,59.6 136.78,59.59 137.18,59.58 137.57,59.57 137.97,59.56 138.37,59.55 138.76,59.53 139.16,59.51 139.55,59.49 139.95,59.47 140.35,59.44 140.74,59.42 141.14,59.39 141.54,59.36 141.93,59.33 142.33,59.31 142.72,59.28 143.12,59.26 143.52,59.23 143.91,59.22 144.31,59.2 144.71,59.19 145.1,59.18 145.5,59.17 145.89,59.16 146.29,59.16 146.69,59.16 147.08,59.16 147.48,59.16 147.87,59.16 148.27,59.16 148.67,59.16 149.06,59.17 149.46,59.16 149.86,59.16 150.25,59.16 150.65,59.15 151.04,59.14 151.44,59.13 151.84,59.12 152.23,59.1 152.63,59.08 153.03,59.05 153.42,59.02 153.82,58.99 154.21,58.96 154.61,58.93 155.01,58.9 155.4,58.86 155.8,58.83 156.19,58.81 156.59,58.78 156.99,58.76 157.38,58.74 157.78,58.73 158.18,58.72 158.57,58.71 158.97,58.71 159.36,58.71 159.76,58.72 160.16,58.73 160.55,58.74 160.95,58.76 161.35,58.78 161.74,58.81 162.14,58.83 162.53,58.86 162.93,58.89 163.33,58.91 163.72,58.93 164.12,58.95 164.51,58.96 164.91,58.96 165.31,58.95 165.7,58.94 166.1,58.93 166.5,58.9 166.89,58.88 167.29,58.85 167.68,58.82 168.08,58.79 168.48,58.76 168.87,58.74 169.27,58.72 169.67,58.71 170.06,58.71 170.46,58.71 170.85,58.72 171.25,58.73 171.65,58.74 172.04,58.76 172.44,58.78 172.83,58.81 173.23,58.83 173.63,58.85 174.02,58.86 174.42,58.88 174.82,58.89 175.21,58.89 175.61,58.89 176,58.89 176.4,58.88 176.8,58.87 177.19,58.86 177.59,58.86 177.99,58.85 178.38,58.85 178.78,58.85 179.17,58.86 179.57,58.87 179.97,58.89 180.36,58.91 180.76,58.94 181.15,58.98 181.55,59.01 181.95,59.05 182.34,59.1 182.74,59.14 183.14,59.18 183.53,59.23 183.93,59.27 184.32,59.32 184.72,59.36 185.12,59.4 185.51,59.44 185.91,59.48 186.31,59.52 186.7,59.55 187.1,59.59 187.49,59.62 187.89,59.65 188.29,59.69 188.68,59.72 189.08,59.75 189.47,59.78 189.87,59.81 190.27,59.85 190.66,59.89 191.06,59.92 191.46,59.96 191.85,60.01 192.25,60.05 192.64,60.1 193.04,60.14 193.44,60.19 193.83,60.24 194.23,60.29 194.63,60.34 195.02,60.39 195.42,60.44 195.81,60.49 196.21,60.54 196.61,60.59 197,60.63 197.4,60.68 197.79,60.72 198.19,60.77 198.59,60.81 198.98,60.85 199.38,60.89 199.78,60.93 200.17,60.96 200.57,61 200.96,61.04 201.36,61.09 201.76,61.13 202.15,61.18 202.55,61.23 202.95,61.28 203.34,61.33 203.74,61.38 204.13,61.44 204.53,61.49 204.93,61.54 205.32,61.59 205.72,61.64 206.12,61.68 206.51,61.71 206.91,61.74 207.3,61.77 207.7,61.78 208.1,61.8 208.49,61.81 208.89,61.81 209.28,61.82 209.68,61.82 210.08,61.82 210.47,61.83 210.87,61.84 211.27,61.85 211.66,61.87 212.06,61.89 212.45,61.91 212.85,61.94 213.25,61.97 213.64,62 214.04,62.03 214.44,62.05 214.83,62.08 215.23,62.1 215.62,62.12 216.02,62.14 216.42,62.15 216.81,62.16 217.21,62.16 217.6,62.16 218,62.15 218.4,62.13 218.79,62.11 219.19,62.08 219.59,62.04 219.98,61.99 220.38,61.94 220.77,61.88 221.17,61.82 221.57,61.75 221.96,61.67 222.36,61.6 222.76,61.52 223.15,61.44 223.55,61.37 223.94,61.3 224.34,61.24 224.74,61.18 225.13,61.14 225.53,61.1 225.92,61.07 226.32,61.05 226.72,61.03 227.11,61.02 227.51,61.01 227.91,61.01 228.3,61 228.7,61 229.09,60.98 229.49,60.97 229.89,60.94 230.28,60.91 230.68,60.87 231.08,60.83 231.47,60.77 231.87,60.72 232.26,60.65 232.66,60.58 233.06,60.5 233.45,60.42 233.85,60.34 234.24,60.25 234.64,60.16 235.04,60.07 235.43,59.98 235.83,59.88 236.23,59.78 236.62,59.68 237.02,59.58 237.41,59.48 237.81,59.38 238.21,59.28 238.6,59.18 239,59.08 239.4,58.99 239.79,58.9 240.19,58.81 240.58,58.73 240.98,58.65 241.38,58.58 241.77,58.51 242.17,58.44 242.56,58.38 242.96,58.32 243.36,58.26 243.75,58.2 244.15,58.15 244.55,58.09 244.94,58.04 245.34,57.98 245.73,57.93 246.13,57.87 246.53,57.81 246.92,57.75 247.32,57.68 247.72,57.61 248.11,57.54 248.51,57.46 248.9,57.37 249.3,57.26 249.7,57.15 250.09,57.03 250.49,56.9 250.88,56.76 251.28,56.62 251.68,56.46 252.07,56.31 252.47,56.15 252.87,55.99 253.26,55.83 253.66,55.69 254.05,55.54 254.45,55.41 254.85,55.29 255.24,55.19 255.64,55.09 256.04,55.01 256.43,54.94 256.83,54.88 257.22,54.83 257.62,54.79 258.02,54.76 258.41,54.74 258.81,54.72 259.2,54.71 259.6,54.7 260,54.69 260.39,54.69 260.79,54.68 261.19,54.68 261.58,54.68" stroke-dasharray="none" stroke="rgb(77,175,74)" stroke-width="0.75" opacity="1" stroke-opacity="1" fill="none" class="aqm6" onclick="plotObjRespond('click', 6, 'dens')" onmouseover="plotObjRespond('show', 6, 'dens')" onmouseout="plotObjRespond('hide', 6, 'dens')"/>
          </g>
          <g id="Fig:densplot_01.xyplot.lines.group.7.panel.1.1.1">
            <polyline id="Fig:densplot_01.xyplot.lines.group.7.panel.1.1.1.1" points="59,54.93 59.4,55.05 59.79,55.23 60.19,55.48 60.59,55.82 60.98,56.26 61.38,56.83 61.78,57.57 62.18,58.49 62.57,59.6 62.97,60.91 63.37,62.41 63.76,64.09 64.16,65.92 64.56,67.87 64.95,69.87 65.35,71.87 65.75,73.79 66.14,75.55 66.54,77.1 66.94,78.37 67.33,79.34 67.73,79.99 68.13,80.31 68.53,80.34 68.92,80.08 69.32,79.6 69.72,78.92 70.11,78.12 70.51,77.24 70.91,76.32 71.3,75.39 71.7,74.48 72.1,73.59 72.49,72.74 72.89,71.92 73.29,71.15 73.68,70.43 74.08,69.75 74.48,69.12 74.88,68.54 75.27,68 75.67,67.51 76.07,67.07 76.46,66.66 76.86,66.28 77.26,65.93 77.65,65.6 78.05,65.3 78.45,65.01 78.84,64.75 79.24,64.5 79.64,64.28 80.03,64.08 80.43,63.9 80.83,63.75 81.23,63.62 81.62,63.52 82.02,63.44 82.42,63.37 82.81,63.32 83.21,63.29 83.61,63.27 84,63.27 84.4,63.3 84.8,63.36 85.19,63.48 85.59,63.69 85.99,64.03 86.38,64.55 86.78,65.33 87.18,66.46 87.58,68.04 87.97,70.2 88.37,73.1 88.77,76.89 89.16,81.74 89.56,87.93 89.96,95.52 90.35,104.51 90.75,114.92 91.15,126.63 91.54,139.44 91.94,153.04 92.34,167.03 92.73,180.91 93.13,194.11 93.53,205.82 93.93,215.5 94.32,222.68 94.72,226.98 95.12,228.17 95.51,226.2 95.91,221.16 96.31,213.32 96.7,203.09 97.1,190.97 97.5,177.49 97.89,163.46 98.29,149.44 98.69,135.92 99.08,123.27 99.48,111.77 99.88,101.61 100.28,92.86 100.67,85.52 101.07,79.51 101.47,74.85 101.86,71.21 102.26,68.42 102.66,66.34 103.05,64.81 103.45,63.72 103.85,62.95 104.24,62.42 104.64,62.06 105.04,61.83 105.43,61.68 105.83,61.58 106.23,61.52 106.63,61.48 107.02,61.45 107.42,61.44 107.82,61.43 108.21,61.43 108.61,61.43 109.01,61.44 109.4,61.44 109.8,61.44 110.2,61.45 110.59,61.45 110.99,61.44 111.39,61.43 111.78,61.41 112.18,61.38 112.58,61.34 112.98,61.3 113.37,61.25 113.77,61.19 114.17,61.13 114.56,61.07 114.96,61 115.36,60.94 115.75,60.88 116.15,60.82 116.55,60.76 116.94,60.71 117.34,60.67 117.74,60.63 118.13,60.6 118.53,60.57 118.93,60.55 119.33,60.53 119.72,60.51 120.12,60.5 120.52,60.49 120.91,60.48 121.31,60.47 121.71,60.47 122.1,60.46 122.5,60.46 122.9,60.45 123.29,60.44 123.69,60.44 124.09,60.43 124.48,60.41 124.88,60.39 125.28,60.37 125.68,60.34 126.07,60.31 126.47,60.27 126.87,60.22 127.26,60.17 127.66,60.12 128.06,60.06 128.45,60.01 128.85,59.95 129.25,59.89 129.64,59.84 130.04,59.8 130.44,59.75 130.83,59.72 131.23,59.68 131.63,59.66 132.03,59.64 132.42,59.62 132.82,59.61 133.22,59.6 133.61,59.59 134.01,59.59 134.41,59.58 134.8,59.57 135.2,59.57 135.6,59.55 135.99,59.54 136.39,59.53 136.79,59.51 137.18,59.49 137.58,59.47 137.98,59.44 138.38,59.42 138.77,59.4 139.17,59.38 139.57,59.36 139.96,59.34 140.36,59.33 140.76,59.31 141.15,59.3 141.55,59.28 141.95,59.27 142.34,59.25 142.74,59.24 143.14,59.22 143.53,59.2 143.93,59.18 144.33,59.15 144.73,59.13 145.12,59.11 145.52,59.08 145.92,59.07 146.31,59.05 146.71,59.04 147.11,59.03 147.5,59.02 147.9,59.02 148.3,59.02 148.69,59.02 149.09,59.03 149.49,59.03 149.88,59.03 150.28,59.03 150.68,59.02 151.08,59.02 151.47,59.01 151.87,59 152.27,58.99 152.66,58.98 153.06,58.96 153.46,58.95 153.85,58.93 154.25,58.92 154.65,58.9 155.04,58.88 155.44,58.85 155.84,58.83 156.23,58.8 156.63,58.77 157.03,58.74 157.43,58.71 157.82,58.69 158.22,58.66 158.62,58.64 159.01,58.62 159.41,58.61 159.81,58.61 160.2,58.61 160.6,58.62 161,58.64 161.39,58.66 161.79,58.69 162.19,58.71 162.58,58.74 162.98,58.77 163.38,58.8 163.78,58.82 164.17,58.84 164.57,58.85 164.97,58.86 165.36,58.86 165.76,58.86 166.16,58.85 166.55,58.84 166.95,58.83 167.35,58.82 167.74,58.81 168.14,58.8 168.54,58.79 168.93,58.78 169.33,58.78 169.73,58.78 170.13,58.78 170.52,58.78 170.92,58.78 171.32,58.78 171.71,58.78 172.11,58.78 172.51,58.78 172.9,58.78 173.3,58.78 173.7,58.78 174.09,58.77 174.49,58.77 174.89,58.76 175.28,58.76 175.68,58.76 176.08,58.75 176.48,58.75 176.87,58.75 177.27,58.76 177.67,58.76 178.06,58.77 178.46,58.78 178.86,58.79 179.25,58.81 179.65,58.83 180.05,58.86 180.44,58.89 180.84,58.93 181.24,58.97 181.63,59.02 182.03,59.08 182.43,59.14 182.83,59.2 183.22,59.27 183.62,59.33 184.02,59.4 184.41,59.47 184.81,59.54 185.21,59.61 185.6,59.67 186,59.73 186.4,59.78 186.79,59.82 187.19,59.86 187.59,59.9 187.98,59.93 188.38,59.96 188.78,59.98 189.18,60 189.57,60.02 189.97,60.04 190.37,60.06 190.76,60.08 191.16,60.1 191.56,60.13 191.95,60.16 192.35,60.19 192.75,60.23 193.14,60.27 193.54,60.32 193.94,60.37 194.33,60.42 194.73,60.48 195.13,60.54 195.53,60.6 195.92,60.66 196.32,60.73 196.72,60.79 197.11,60.85 197.51,60.91 197.91,60.97 198.3,61.02 198.7,61.07 199.1,61.12 199.49,61.17 199.89,61.21 200.29,61.24 200.68,61.27 201.08,61.3 201.48,61.33 201.88,61.36 202.27,61.39 202.67,61.42 203.07,61.45 203.46,61.49 203.86,61.52 204.26,61.56 204.65,61.61 205.05,61.66 205.45,61.7 205.84,61.76 206.24,61.81 206.64,61.86 207.03,61.9 207.43,61.95 207.83,61.99 208.23,62.03 208.62,62.06 209.02,62.09 209.42,62.11 209.81,62.12 210.21,62.14 210.61,62.14 211,62.15 211.4,62.15 211.8,62.15 212.19,62.16 212.59,62.16 212.99,62.16 213.38,62.17 213.78,62.18 214.18,62.19 214.58,62.2 214.97,62.21 215.37,62.22 215.77,62.23 216.16,62.24 216.56,62.24 216.96,62.24 217.35,62.24 217.75,62.23 218.15,62.22 218.54,62.2 218.94,62.18 219.34,62.16 219.73,62.13 220.13,62.09 220.53,62.05 220.93,62.01 221.32,61.97 221.72,61.92 222.12,61.87 222.51,61.82 222.91,61.78 223.31,61.73 223.7,61.68 224.1,61.63 224.5,61.58 224.89,61.54 225.29,61.5 225.69,61.46 226.08,61.42 226.48,61.38 226.88,61.34 227.28,61.3 227.67,61.27 228.07,61.23 228.47,61.18 228.86,61.14 229.26,61.09 229.66,61.04 230.05,60.98 230.45,60.92 230.85,60.86 231.24,60.79 231.64,60.71 232.04,60.63 232.43,60.54 232.83,60.45 233.23,60.36 233.63,60.26 234.02,60.16 234.42,60.05 234.82,59.95 235.21,59.84 235.61,59.73 236.01,59.62 236.4,59.52 236.8,59.42 237.2,59.32 237.59,59.22 237.99,59.13 238.39,59.05 238.78,58.97 239.18,58.89 239.58,58.82 239.98,58.75 240.37,58.69 240.77,58.63 241.17,58.57 241.56,58.51 241.96,58.45 242.36,58.39 242.75,58.33 243.15,58.27 243.55,58.2 243.94,58.14 244.34,58.08 244.74,58.01 245.13,57.95 245.53,57.88 245.93,57.81 246.33,57.75 246.72,57.68 247.12,57.6 247.52,57.53 247.91,57.45 248.31,57.36 248.71,57.27 249.1,57.18 249.5,57.07 249.9,56.96 250.29,56.84 250.69,56.72 251.09,56.59 251.48,56.45 251.88,56.31 252.28,56.17 252.68,56.03 253.07,55.89 253.47,55.75 253.87,55.61 254.26,55.49 254.66,55.37 255.06,55.26 255.45,55.16 255.85,55.07 256.25,55 256.64,54.93 257.04,54.88 257.44,54.83 257.83,54.79 258.23,54.76 258.63,54.74 259.03,54.72 259.42,54.71 259.82,54.7 260.22,54.69 260.61,54.69 261.01,54.68 261.41,54.68 261.8,54.68" stroke-dasharray="none" stroke="rgb(55,126,184)" stroke-width="0.75" opacity="1" stroke-opacity="1" fill="none" class="aqm7" onclick="plotObjRespond('click', 7, 'dens')" onmouseover="plotObjRespond('show', 7, 'dens')" onmouseout="plotObjRespond('hide', 7, 'dens')"/>
          </g>
          <g id="Fig:densplot_01.xyplot.lines.group.8.panel.1.1.1">
            <polyline id="Fig:densplot_01.xyplot.lines.group.8.panel.1.1.1.1" points="59.24,54.93 59.63,55.07 60.03,55.26 60.42,55.53 60.82,55.9 61.21,56.39 61.61,57.03 62.01,57.84 62.4,58.84 62.8,60.05 63.19,61.47 63.59,63.11 63.99,64.95 64.38,66.93 64.78,69.01 65.17,71.11 65.57,73.17 65.97,75.11 66.36,76.86 66.76,78.34 67.15,79.51 67.55,80.34 67.95,80.77 68.34,80.86 68.74,80.65 69.13,80.18 69.53,79.51 69.93,78.7 70.32,77.79 70.72,76.84 71.11,75.87 71.51,74.91 71.91,73.99 72.3,73.1 72.7,72.26 73.09,71.47 73.49,70.71 73.89,70 74.28,69.35 74.68,68.74 75.07,68.18 75.47,67.67 75.87,67.22 76.26,66.81 76.66,66.44 77.05,66.1 77.45,65.78 77.85,65.48 78.24,65.19 78.64,64.92 79.03,64.67 79.43,64.44 79.83,64.23 80.22,64.04 80.62,63.88 81.01,63.74 81.41,63.63 81.81,63.53 82.2,63.45 82.6,63.39 82.99,63.34 83.39,63.3 83.79,63.27 84.18,63.26 84.58,63.28 84.97,63.33 85.37,63.44 85.77,63.63 86.16,63.95 86.56,64.45 86.95,65.2 87.35,66.3 87.74,67.87 88.14,70.13 88.54,73.2 88.93,77.26 89.33,82.48 89.72,89.04 90.12,97.06 90.52,106.61 90.91,117.68 91.31,130.18 91.7,143.89 92.1,158.49 92.5,173.34 92.89,187.84 93.29,201.34 93.68,213.17 94.08,222.72 94.48,229.46 94.87,233 95.27,233.12 95.66,229.79 96.06,222.91 96.46,213.13 96.85,201.12 97.25,187.5 97.64,172.94 98.04,158.07 98.44,143.48 98.83,129.65 99.23,116.96 99.62,105.67 100.02,96.02 100.42,88 100.81,81.43 101.21,76.19 101.6,72.1 102,68.99 102.4,66.68 102.79,65.01 103.19,63.83 103.58,63.01 103.98,62.47 104.38,62.12 104.77,61.89 105.17,61.74 105.56,61.65 105.96,61.59 106.36,61.56 106.75,61.53 107.15,61.52 107.54,61.51 107.94,61.51 108.34,61.51 108.73,61.51 109.13,61.51 109.52,61.52 109.92,61.52 110.32,61.52 110.71,61.52 111.11,61.51 111.5,61.49 111.9,61.47 112.3,61.44 112.69,61.41 113.09,61.36 113.48,61.31 113.88,61.26 114.27,61.19 114.67,61.13 115.07,61.06 115.46,61 115.86,60.93 116.25,60.87 116.65,60.81 117.05,60.75 117.44,60.7 117.84,60.66 118.23,60.62 118.63,60.59 119.03,60.56 119.42,60.53 119.82,60.51 120.21,60.5 120.61,60.48 121.01,60.47 121.4,60.47 121.8,60.46 122.19,60.46 122.59,60.45 122.99,60.45 123.38,60.45 123.78,60.44 124.17,60.43 124.57,60.42 124.97,60.41 125.36,60.39 125.76,60.37 126.15,60.34 126.55,60.31 126.95,60.28 127.34,60.24 127.74,60.2 128.13,60.16 128.53,60.12 128.93,60.07 129.32,60.02 129.72,59.97 130.11,59.92 130.51,59.88 130.91,59.83 131.3,59.78 131.7,59.73 132.09,59.69 132.49,59.65 132.89,59.62 133.28,59.58 133.68,59.56 134.07,59.54 134.47,59.52 134.87,59.51 135.26,59.5 135.66,59.5 136.05,59.5 136.45,59.5 136.85,59.5 137.24,59.5 137.64,59.5 138.03,59.5 138.43,59.5 138.83,59.5 139.22,59.49 139.62,59.48 140.01,59.46 140.41,59.44 140.8,59.42 141.2,59.39 141.6,59.36 141.99,59.33 142.39,59.3 142.78,59.27 143.18,59.24 143.58,59.2 143.97,59.17 144.37,59.14 144.76,59.12 145.16,59.1 145.56,59.08 145.95,59.06 146.35,59.05 146.74,59.04 147.14,59.03 147.54,59.03 147.93,59.03 148.33,59.03 148.72,59.03 149.12,59.03 149.52,59.03 149.91,59.03 150.31,59.03 150.7,59.03 151.1,59.03 151.5,59.02 151.89,59.02 152.29,59.02 152.68,59.01 153.08,59.01 153.48,59 153.87,58.99 154.27,58.98 154.66,58.97 155.06,58.96 155.46,58.95 155.85,58.93 156.25,58.92 156.64,58.9 157.04,58.89 157.44,58.87 157.83,58.85 158.23,58.84 158.62,58.82 159.02,58.8 159.42,58.79 159.81,58.77 160.21,58.76 160.6,58.75 161,58.73 161.4,58.72 161.79,58.71 162.19,58.7 162.58,58.69 162.98,58.68 163.38,58.68 163.77,58.67 164.17,58.67 164.56,58.67 164.96,58.67 165.36,58.67 165.75,58.67 166.15,58.67 166.54,58.68 166.94,58.68 167.34,58.69 167.73,58.69 168.13,58.7 168.52,58.71 168.92,58.72 169.31,58.74 169.71,58.75 170.11,58.78 170.5,58.8 170.9,58.82 171.29,58.85 171.69,58.87 172.09,58.89 172.48,58.91 172.88,58.93 173.27,58.95 173.67,58.96 174.07,58.97 174.46,58.97 174.86,58.98 175.25,58.98 175.65,58.97 176.05,58.97 176.44,58.96 176.84,58.95 177.23,58.95 177.63,58.94 178.03,58.93 178.42,58.92 178.82,58.92 179.21,58.91 179.61,58.91 180.01,58.91 180.4,58.92 180.8,58.93 181.19,58.95 181.59,58.97 181.99,59 182.38,59.04 182.78,59.08 183.17,59.13 183.57,59.19 183.97,59.25 184.36,59.31 184.76,59.38 185.15,59.45 185.55,59.51 185.95,59.58 186.34,59.64 186.74,59.7 187.13,59.75 187.53,59.8 187.93,59.84 188.32,59.88 188.72,59.91 189.11,59.94 189.51,59.96 189.91,59.99 190.3,60.01 190.7,60.03 191.09,60.05 191.49,60.07 191.89,60.1 192.28,60.13 192.68,60.16 193.07,60.19 193.47,60.23 193.87,60.26 194.26,60.3 194.66,60.34 195.05,60.37 195.45,60.41 195.84,60.45 196.24,60.49 196.64,60.53 197.03,60.57 197.43,60.62 197.82,60.66 198.22,60.71 198.62,60.75 199.01,60.8 199.41,60.85 199.8,60.9 200.2,60.95 200.6,61 200.99,61.05 201.39,61.1 201.78,61.15 202.18,61.2 202.58,61.25 202.97,61.3 203.37,61.35 203.76,61.4 204.16,61.45 204.56,61.5 204.95,61.55 205.35,61.59 205.74,61.63 206.14,61.66 206.54,61.69 206.93,61.71 207.33,61.73 207.72,61.74 208.12,61.74 208.52,61.74 208.91,61.74 209.31,61.74 209.7,61.73 210.1,61.73 210.5,61.73 210.89,61.74 211.29,61.74 211.68,61.76 212.08,61.78 212.48,61.8 212.87,61.83 213.27,61.86 213.66,61.89 214.06,61.92 214.46,61.95 214.85,61.98 215.25,62 215.64,62.02 216.04,62.04 216.44,62.06 216.83,62.06 217.23,62.07 217.62,62.06 218.02,62.05 218.42,62.03 218.81,62.01 219.21,61.98 219.6,61.94 220,61.89 220.4,61.84 220.79,61.79 221.19,61.73 221.58,61.66 221.98,61.6 222.37,61.54 222.77,61.48 223.17,61.43 223.56,61.38 223.96,61.34 224.35,61.3 224.75,61.27 225.15,61.25 225.54,61.23 225.94,61.21 226.33,61.2 226.73,61.19 227.13,61.17 227.52,61.16 227.92,61.14 228.31,61.11 228.71,61.08 229.11,61.05 229.5,61.01 229.9,60.96 230.29,60.91 230.69,60.86 231.09,60.81 231.48,60.75 231.88,60.69 232.27,60.63 232.67,60.57 233.07,60.51 233.46,60.44 233.86,60.37 234.25,60.29 234.65,60.21 235.05,60.13 235.44,60.04 235.84,59.95 236.23,59.86 236.63,59.76 237.03,59.66 237.42,59.56 237.82,59.45 238.21,59.35 238.61,59.26 239.01,59.16 239.4,59.07 239.8,58.97 240.19,58.89 240.59,58.8 240.99,58.72 241.38,58.64 241.78,58.57 242.17,58.49 242.57,58.42 242.97,58.35 243.36,58.29 243.76,58.22 244.15,58.15 244.55,58.09 244.95,58.03 245.34,57.96 245.74,57.9 246.13,57.84 246.53,57.78 246.93,57.71 247.32,57.64 247.72,57.57 248.11,57.5 248.51,57.42 248.9,57.33 249.3,57.24 249.7,57.14 250.09,57.03 250.49,56.91 250.88,56.79 251.28,56.65 251.68,56.51 252.07,56.37 252.47,56.22 252.86,56.07 253.26,55.92 253.66,55.77 254.05,55.63 254.45,55.49 254.84,55.37 255.24,55.26 255.64,55.15 256.03,55.06 256.43,54.98 256.82,54.92 257.22,54.86 257.62,54.82 258.01,54.78 258.41,54.75 258.8,54.73 259.2,54.72 259.6,54.7 259.99,54.7 260.39,54.69 260.78,54.68 261.18,54.68 261.58,54.68" stroke-dasharray="none" stroke="rgb(55,126,184)" stroke-width="0.75" opacity="1" stroke-opacity="1" fill="none" class="aqm8" onclick="plotObjRespond('click', 8, 'dens')" onmouseover="plotObjRespond('show', 8, 'dens')" onmouseout="plotObjRespond('hide', 8, 'dens')"/>
          </g>
        </g>
        <g id="Fig:densplot_01.panel.1.1.off.vp.2">
          <g id="Fig:densplot_01.border.panel.1.1.1">
            <rect id="Fig:densplot_01.border.panel.1.1.1.1" x="44.8" y="42.19" width="231.2" height="203.43" stroke="rgb(0,0,0)" stroke-dasharray="none" stroke-width="0.75" opacity="1" fill="none" stroke-opacity="1" fill-opacity="0"/>
          </g>
        </g>
        <g id="Fig:densplot_01..1"/>
      </g>
    </g>
  </g>
</svg>